<svg width="32" height="32" viewBox="0 0 32 32" fill="none" xmlns="http://www.w3.org/2000/svg">
<path d="M5.2 16.0007C5.2 13.7207 7.05333 11.8673 9.33333 11.8673H14.6667V9.33398H9.33333C5.65333 9.33398 2.66666 12.3207 2.66666 16.0007C2.66666 19.6807 5.65333 22.6673 9.33333 22.6673H14.6667V20.134H9.33333C7.05333 20.134 5.2 18.2807 5.2 16.0007ZM10.6667 17.334H21.3333V14.6673H10.6667V17.334ZM22.6667 9.33398H17.3333V11.8673H22.6667C24.9467 11.8673 26.8 13.7207 26.8 16.0007C26.8 18.2807 24.9467 20.134 22.6667 20.134H17.3333V22.6673H22.6667C26.3467 22.6673 29.3333 19.6807 29.3333 16.0007C29.3333 12.3207 26.3467 9.33398 22.6667 9.33398Z" fill="#506683"/>
</svg>
