<svg width="88" height="76" viewBox="0 0 88 76" fill="none" xmlns="http://www.w3.org/2000/svg">
<rect x="0.914062" width="87" height="76" rx="8" fill="#F5FFEB"/>
<path fill-rule="evenodd" clip-rule="evenodd" d="M35.4084 19.3747C36.1674 19.0428 36.5136 18.1584 36.1817 17.3994C35.8498 16.6404 34.9654 16.2941 34.2064 16.626C29.6929 18.5998 25.8631 21.8408 23.1651 25.8987C22.7064 26.5885 22.8939 27.5196 23.5837 27.9783C24.2736 28.437 25.2046 28.2496 25.6633 27.5597C28.0458 23.9764 31.4277 21.1154 35.4084 19.3747ZM54.6221 16.626C53.863 16.2941 52.9786 16.6404 52.6467 17.3994C52.3148 18.1584 52.661 19.0428 53.4201 19.3747C57.4008 21.1154 60.7826 23.9764 63.1651 27.5597C63.6238 28.2496 64.5549 28.437 65.2447 27.9783C65.9346 27.5196 66.122 26.5885 65.6633 25.8987C62.9653 21.8408 59.1356 18.5998 54.6221 16.626ZM59.3126 51.7926C61.8807 48.5526 63.4142 44.4554 63.4142 40C63.4142 29.5066 54.9076 21 44.4142 21C33.9208 21 25.4142 29.5066 25.4142 40C25.4142 44.4553 26.9476 48.5524 29.5156 51.7924L25.2489 57.0554C24.7272 57.699 24.826 58.6436 25.4695 59.1653C26.113 59.687 27.0576 59.5882 27.5793 58.9447L31.5797 54.01C34.9606 57.1089 39.4665 59 44.4142 59C49.3617 59 53.8676 57.1089 57.2485 54.0102L61.2489 58.9447C61.7706 59.5882 62.7152 59.6869 63.3587 59.1652C64.0023 58.6435 64.101 57.6989 63.5793 57.0554L59.3126 51.7926ZM44.4141 28.5C45.2425 28.5 45.9141 29.1716 45.9141 30V39.1972L51.2461 42.7519C51.9354 43.2115 52.1217 44.1428 51.6621 44.8321C51.2026 45.5213 50.2713 45.7076 49.582 45.2481L43.582 41.2481C43.1647 40.9699 42.9141 40.5015 42.9141 40V30C42.9141 29.1716 43.5856 28.5 44.4141 28.5Z" fill="#A3CC7A"/>
</svg>
