<svg width="18" height="18" viewBox="0 0 18 18" fill="none" xmlns="http://www.w3.org/2000/svg">
<g id="Huge-icon">
<path id="Vector" d="M3.00006 3L15.0001 15M10.5001 10.6771C10.102 11.0334 9.57633 11.25 9.00006 11.25C7.75742 11.25 6.75006 10.2426 6.75006 9C6.75006 8.42373 6.9667 7.89807 7.32298 7.5M14.7059 11.7058C15.1344 11.3327 15.5177 10.9574 15.8478 10.6102C16.7175 9.69512 16.7175 8.30488 15.8478 7.38982C14.3809 5.8465 11.8617 3.75 9.00006 3.75C8.33153 3.75 7.68169 3.86442 7.05959 4.05948M4.87506 5.10254C3.78114 5.80083 2.84829 6.65759 2.15234 7.38982C1.28263 8.30488 1.28263 9.69512 2.15234 10.6102C3.61918 12.1535 6.13842 14.25 9.00006 14.25C10.4011 14.25 11.7201 13.7474 12.8737 13.0533" stroke="#A1A1A1" stroke-width="1.5" stroke-linecap="round"/>
</g>
</svg>
