<svg width="20" height="21" viewBox="0 0 20 21" fill="none" xmlns="http://www.w3.org/2000/svg">
<g id="u:home-alt">
<path id="Vector" d="M16.6667 6.86565L11.6667 2.48231C11.2084 2.07235 10.615 1.8457 10.0001 1.8457C9.38513 1.8457 8.79176 2.07235 8.33341 2.48231L3.33341 6.86565C3.06872 7.10237 2.8575 7.39278 2.71381 7.71752C2.57012 8.04226 2.49726 8.39388 2.50008 8.74898V16.0323C2.50008 16.6954 2.76347 17.3312 3.23231 17.8001C3.70115 18.2689 4.33704 18.5323 5.00008 18.5323H15.0001C15.6631 18.5323 16.299 18.2689 16.7678 17.8001C17.2367 17.3312 17.5001 16.6954 17.5001 16.0323V8.74065C17.5017 8.38695 17.4283 8.03693 17.2846 7.71371C17.141 7.3905 16.9304 7.10144 16.6667 6.86565ZM11.6667 16.8656H8.33341V12.699C8.33341 12.478 8.42121 12.266 8.57749 12.1097C8.73377 11.9534 8.94573 11.8656 9.16675 11.8656H10.8334C11.0544 11.8656 11.2664 11.9534 11.4227 12.1097C11.5789 12.266 11.6667 12.478 11.6667 12.699V16.8656ZM15.8334 16.0323C15.8334 16.2533 15.7456 16.4653 15.5893 16.6216C15.4331 16.7778 15.2211 16.8656 15.0001 16.8656H13.3334V12.699C13.3334 12.0359 13.07 11.4001 12.6012 10.9312C12.1323 10.4624 11.4965 10.199 10.8334 10.199H9.16675C8.5037 10.199 7.86782 10.4624 7.39898 10.9312C6.93014 11.4001 6.66675 12.0359 6.66675 12.699V16.8656H5.00008C4.77907 16.8656 4.5671 16.7778 4.41082 16.6216C4.25454 16.4653 4.16675 16.2533 4.16675 16.0323V8.74065C4.1669 8.62232 4.19224 8.50539 4.24109 8.39763C4.28995 8.28986 4.36119 8.19374 4.45008 8.11565L9.45008 3.74065C9.60215 3.60705 9.79766 3.53337 10.0001 3.53337C10.2025 3.53337 10.398 3.60705 10.5501 3.74065L15.5501 8.11565C15.639 8.19374 15.7102 8.28986 15.7591 8.39763C15.8079 8.50539 15.8333 8.62232 15.8334 8.74065V16.0323Z" fill="#F88379"/>
</g>
</svg>
