<svg width="41" height="56" viewBox="0 0 41 56" fill="none" xmlns="http://www.w3.org/2000/svg">
<rect y="14.8564" width="40.2381" height="40.2382" rx="7.1218" fill="#F88379"/>
<path d="M10.9687 10.7861C10.9687 5.67289 15.1138 1.52778 20.227 1.52778C25.3403 1.52778 29.4854 5.67289 29.4854 10.7861" stroke="#F88379" stroke-width="2.84872" stroke-linecap="round"/>
<path d="M31.2625 20.7569C32.7489 20.7569 33.9768 21.9525 33.9768 23.4712V46.2516C33.9768 47.738 32.7489 48.9336 31.2625 48.9336C29.7438 48.9336 28.5482 47.738 28.5482 46.2516V34.0051L22.3765 45.153C21.8918 46.0578 20.9547 46.5425 20.0177 46.5425C19.0483 46.5425 18.1112 46.0578 17.6265 45.153L11.4548 34.0051V46.2516C11.4548 47.738 10.2592 48.9336 8.74055 48.9336C7.25416 48.9336 6.05859 47.738 6.05859 46.2516V23.4712C6.05859 21.9525 7.25416 20.7569 8.74055 20.7569C9.77455 20.7569 10.647 21.3386 11.1317 22.1464L20.0177 38.2381L28.8714 22.1464H28.9037C29.356 21.3386 30.2285 20.7569 31.2625 20.7569Z" fill="white"/>
</svg>
