<svg xmlns="http://www.w3.org/2000/svg" width="24" height="24" fill="currentColor" class="bi bi-hourglass-split" viewBox="0 0 16 16">
  <path d="M8 9.5c-1.277 0-2.098.783-2.444 1.707-.17.452-.391.938-.742 1.379C4.016 12.948 3.645 13 3.5 13H3a1 1 0 0 0-1 1v1h12v-1a1 1 0 0 0-1-1h-.5c-.145 0-.516-.052-.814-.414-.351-.441-.572-.927-.742-1.379C10.098 10.283 9.277 9.5 8 9.5zm0-3c1.277 0 2.098-.783 2.444-1.707.17-.452.391-.938.742-1.379.298-.362.669-.414.814-.414h.5a1 1 0 0 0 1-1V1H2v1a1 1 0 0 0 1 1h.5c.145 0 .516.052.814.414.351.441.572.927.742 1.379C5.902 5.717 6.723 6.5 8 6.5zM3 12.5V13h1a2 2 0 0 1-1-1zm9 0a2 2 0 0 1-1 1h1v-.5zM3 4.5V4h1a2 2 0 0 1-1 1zm9 0a2 2 0 0 1-1-1h1v.5z"/>
  <path fill-rule="evenodd" d="M2 1a1 1 0 0 0-1 1v2h14V2a1 1 0 0 0-1-1H2zM1 3V2a1 1 0 0 1 1-1h12a1 1 0 0 1 1 1v1H1zm0 9v2a1 1 0 0 0 1 1h12a1 1 0 0 0 1-1v-2H1z"/>
</svg>
