<svg width="20" height="21" viewBox="0 0 20 21" fill="none" xmlns="http://www.w3.org/2000/svg">
<path d="M14.9999 11.1819V8.5319C14.9987 7.35117 14.5797 6.20896 13.8171 5.30755C13.0545 4.40613 11.9975 3.80369 10.8333 3.6069V2.69857C10.8333 2.47755 10.7455 2.26559 10.5892 2.10931C10.4329 1.95303 10.2209 1.86523 9.99992 1.86523C9.7789 1.86523 9.56694 1.95303 9.41066 2.10931C9.25438 2.26559 9.16658 2.47755 9.16658 2.69857V3.6069C8.00237 3.80369 6.94536 4.40613 6.18274 5.30755C5.42012 6.20896 5.00112 7.35117 4.99992 8.5319V11.1819C4.51363 11.3538 4.09242 11.672 3.79403 12.0927C3.49565 12.5134 3.3347 13.0161 3.33325 13.5319V15.1986C3.33325 15.4196 3.42105 15.6315 3.57733 15.7878C3.73361 15.9441 3.94557 16.0319 4.16659 16.0319H6.78325C6.97515 16.738 7.39409 17.3614 7.97542 17.8058C8.55675 18.2503 9.26817 18.4911 9.99992 18.4911C10.7317 18.4911 11.4431 18.2503 12.0244 17.8058C12.6058 17.3614 13.0247 16.738 13.2166 16.0319H15.8333C16.0543 16.0319 16.2662 15.9441 16.4225 15.7878C16.5788 15.6315 16.6666 15.4196 16.6666 15.1986V13.5319C16.6651 13.0161 16.5042 12.5134 16.2058 12.0927C15.9074 11.672 15.4862 11.3538 14.9999 11.1819ZM6.66659 8.5319C6.66659 7.64785 7.01777 6.8 7.6429 6.17488C8.26802 5.54976 9.11586 5.19857 9.99992 5.19857C10.884 5.19857 11.7318 5.54976 12.3569 6.17488C12.9821 6.8 13.3333 7.64785 13.3333 8.5319V11.0319H6.66659V8.5319ZM9.99992 16.8652C9.70906 16.8635 9.42373 16.7856 9.17228 16.6394C8.92083 16.4933 8.71201 16.2838 8.56659 16.0319H11.4333C11.2878 16.2838 11.079 16.4933 10.8276 16.6394C10.5761 16.7856 10.2908 16.8635 9.99992 16.8652ZM14.9999 14.3652H4.99992V13.5319C4.99992 13.3109 5.08772 13.0989 5.244 12.9426C5.40028 12.7864 5.61224 12.6986 5.83325 12.6986H14.1666C14.3876 12.6986 14.5996 12.7864 14.7558 12.9426C14.9121 13.0989 14.9999 13.3109 14.9999 13.5319V14.3652Z" fill="#506683"/>
</svg>
