<svg width="27" height="18" viewBox="0 0 27 18" fill="none" xmlns="http://www.w3.org/2000/svg">
<path d="M16.25 14.25V13.0155C16.25 12.4022 15.8766 11.8506 15.3071 11.6228L13.7815 11.0126C13.0571 10.7229 12.2316 11.0367 11.8828 11.7345L11.75 12C11.75 12 9.875 11.625 8.375 10.125C6.875 8.625 6.5 6.75 6.5 6.75L6.76551 6.61724C7.46328 6.26836 7.77714 5.44285 7.48741 4.71852L6.87717 3.19291C6.64937 2.62343 6.09781 2.25 5.48445 2.25H4.25C3.42157 2.25 2.75 2.92157 2.75 3.75C2.75 10.3774 8.12258 15.75 14.75 15.75C15.5784 15.75 16.25 15.0784 16.25 14.25Z" stroke="#A1A1A1" stroke-width="1.5" stroke-linejoin="round"/>
</svg>
