<svg width="20" height="20" viewBox="0 0 20 20" fill="none" xmlns="http://www.w3.org/2000/svg">
<path d="M17.4999 17.5002L13.8808 13.881M13.8808 13.881C14.4998 13.2619 14.9909 12.527 15.3259 11.7181C15.661 10.9093 15.8334 10.0423 15.8334 9.16684C15.8334 8.29134 15.661 7.42441 15.326 6.61555C14.9909 5.80669 14.4998 5.07174 13.8808 4.45267C13.2617 3.8336 12.5267 3.34252 11.7179 3.00748C10.909 2.67244 10.0421 2.5 9.16659 2.5C8.29109 2.5 7.42416 2.67244 6.61531 3.00748C5.80645 3.34252 5.0715 3.8336 4.45243 4.45267C3.20215 5.70295 2.49976 7.39868 2.49976 9.16684C2.49976 10.935 3.20215 12.6307 4.45243 13.881C5.7027 15.1313 7.39844 15.8337 9.16659 15.8337C10.9347 15.8337 12.6305 15.1313 13.8808 13.881Z" stroke="#929292" stroke-width="2" stroke-linecap="round" stroke-linejoin="round"/>
</svg>
