<svg width="20" height="21" viewBox="0 0 20 21" fill="none" xmlns="http://www.w3.org/2000/svg">
<path d="M16.5833 10.7497C16.4497 10.5976 16.376 10.4021 16.376 10.1997C16.376 9.99728 16.4497 9.80177 16.5833 9.6497L17.65 8.4497C17.7675 8.31859 17.8405 8.15362 17.8585 7.97846C17.8765 7.80329 17.8385 7.62694 17.75 7.4747L16.0833 4.59137C15.9957 4.4393 15.8624 4.31877 15.7023 4.24694C15.5422 4.17511 15.3635 4.15567 15.1917 4.19137L13.625 4.50803C13.4256 4.54922 13.2181 4.51603 13.0416 4.4147C12.865 4.31338 12.7317 4.15094 12.6667 3.95803L12.1583 2.43303C12.1024 2.26752 11.9959 2.12376 11.8539 2.02207C11.7118 1.92038 11.5414 1.86592 11.3667 1.86637H8.03333C7.85161 1.85688 7.67177 1.90714 7.5213 2.00946C7.37082 2.11179 7.25798 2.26055 7.2 2.43303L6.73333 3.95803C6.66833 4.15094 6.53497 4.31338 6.35842 4.4147C6.18187 4.51603 5.97434 4.54922 5.77499 4.50803L4.16666 4.19137C4.00379 4.16835 3.83774 4.19405 3.68945 4.26523C3.54116 4.33642 3.41725 4.44989 3.33333 4.59137L1.66666 7.4747C1.57596 7.62524 1.53518 7.80061 1.55015 7.97572C1.56511 8.15084 1.63506 8.31673 1.74999 8.4497L2.80833 9.6497C2.94193 9.80177 3.01561 9.99728 3.01561 10.1997C3.01561 10.4021 2.94193 10.5976 2.80833 10.7497L1.74999 11.9497C1.63506 12.0827 1.56511 12.2486 1.55015 12.4237C1.53518 12.5988 1.57596 12.7742 1.66666 12.9247L3.33333 15.808C3.42091 15.9601 3.55426 16.0806 3.71437 16.1525C3.87448 16.2243 4.05318 16.2437 4.225 16.208L5.79166 15.8914C5.99101 15.8502 6.19854 15.8834 6.37509 15.9847C6.55164 16.086 6.685 16.2485 6.74999 16.4414L7.25833 17.9664C7.31631 18.1389 7.42916 18.2876 7.57963 18.3899C7.73011 18.4923 7.90994 18.5425 8.09166 18.533H11.425C11.5997 18.5335 11.7701 18.479 11.9122 18.3773C12.0542 18.2756 12.1608 18.1319 12.2167 17.9664L12.725 16.4414C12.79 16.2485 12.9234 16.086 13.0999 15.9847C13.2764 15.8834 13.484 15.8502 13.6833 15.8914L15.25 16.208C15.4218 16.2437 15.6005 16.2243 15.7606 16.1525C15.9207 16.0806 16.0541 15.9601 16.1417 15.808L17.8083 12.9247C17.8968 12.7725 17.9348 12.5961 17.9168 12.4209C17.8989 12.2458 17.8259 12.0808 17.7083 11.9497L16.5833 10.7497ZM15.3417 11.8664L16.0083 12.6164L14.9417 14.4664L13.9583 14.2664C13.3581 14.1437 12.7338 14.2456 12.2038 14.5529C11.6738 14.8601 11.2751 15.3512 11.0833 15.933L10.7667 16.8664H8.63333L8.33333 15.9164C8.14154 15.3346 7.74281 14.8434 7.21283 14.5362C6.68285 14.229 6.05851 14.127 5.45833 14.2497L4.47499 14.4497L3.39166 12.608L4.05833 11.858C4.46829 11.3997 4.69494 10.8063 4.69494 10.1914C4.69494 9.57642 4.46829 8.98305 4.05833 8.5247L3.39166 7.7747L4.45833 5.94137L5.44166 6.14137C6.04185 6.26405 6.66618 6.1621 7.19617 5.85487C7.72615 5.54763 8.12487 5.0565 8.31666 4.4747L8.63333 3.53303H10.7667L11.0833 4.48303C11.2751 5.06483 11.6738 5.55596 12.2038 5.8632C12.7338 6.17043 13.3581 6.27239 13.9583 6.1497L14.9417 5.9497L16.0083 7.7997L15.3417 8.5497C14.9363 9.007 14.7125 9.59694 14.7125 10.208C14.7125 10.8191 14.9363 11.4091 15.3417 11.8664ZM9.7 6.86637C9.04072 6.86637 8.39626 7.06186 7.84809 7.42814C7.29993 7.79441 6.87269 8.315 6.6204 8.92409C6.3681 9.53318 6.30209 10.2034 6.43071 10.85C6.55933 11.4966 6.8768 12.0905 7.34297 12.5567C7.80915 13.0229 8.40309 13.3404 9.04969 13.469C9.6963 13.5976 10.3665 13.5316 10.9756 13.2793C11.5847 13.027 12.1053 12.5998 12.4716 12.0516C12.8378 11.5034 13.0333 10.859 13.0333 10.1997C13.0333 9.31565 12.6821 8.4678 12.057 7.84268C11.4319 7.21756 10.5841 6.86637 9.7 6.86637ZM9.7 11.8664C9.37036 11.8664 9.04813 11.7686 8.77404 11.5855C8.49996 11.4023 8.28634 11.1421 8.1602 10.8375C8.03405 10.533 8.00104 10.1979 8.06535 9.87455C8.12966 9.55125 8.2884 9.25428 8.52148 9.02119C8.75457 8.7881 9.05154 8.62937 9.37484 8.56506C9.69815 8.50075 10.0333 8.53376 10.3378 8.6599C10.6423 8.78605 10.9026 8.99967 11.0858 9.27375C11.2689 9.54783 11.3667 9.87007 11.3667 10.1997C11.3667 10.6417 11.1911 11.0657 10.8785 11.3782C10.5659 11.6908 10.142 11.8664 9.7 11.8664Z" fill="#F88379"/>
</svg>
