<svg width="64" height="64" viewBox="0 0 64 64" fill="none" xmlns="http://www.w3.org/2000/svg">
<path fill-rule="evenodd" clip-rule="evenodd" d="M31.9998 56.32C47.5522 56.32 60.1598 43.7123 60.1598 28.16C60.1598 12.6077 47.5522 0 31.9998 0C16.4475 0 3.83984 12.6077 3.83984 28.16C3.83984 36.917 7.83703 44.7404 14.1064 49.9052C14.1164 49.9135 14.1075 49.9295 14.0952 49.9253C14.0877 49.9227 14.0799 49.9283 14.0799 49.9363V57.5042C14.0799 60.4834 17.2201 62.4171 19.8804 61.076L28.5126 56.7246C29.1761 56.3901 29.9193 56.254 30.6615 56.2888C31.105 56.3095 31.5512 56.32 31.9998 56.32Z" fill="#5CB67F"/>
<path fill-rule="evenodd" clip-rule="evenodd" d="M40.4758 19.7599C41.2701 20.369 41.4217 21.506 40.8147 22.3019L31.8069 34.1123C31.4893 34.5288 31.0079 34.7875 30.4862 34.8223C29.9644 34.857 29.4532 34.6643 29.0834 34.2936L23.3662 28.5612C22.6591 27.8523 22.6591 26.7049 23.3662 25.996C24.0759 25.2844 25.2285 25.2844 25.9382 25.996L30.1837 30.2527L37.9273 20.0997C38.5365 19.3009 39.6786 19.1487 40.4758 19.7599Z" fill="white"/>
</svg>
