<svg width="20" height="21" viewBox="0 0 20 21" fill="none" xmlns="http://www.w3.org/2000/svg">
<path d="M12.9167 11.0326C15.9082 11.0326 18.3333 10.2864 18.3333 9.36589C18.3333 8.44541 15.9082 7.69922 12.9167 7.69922C9.92512 7.69922 7.5 8.44541 7.5 9.36589C7.5 10.2864 9.92512 11.0326 12.9167 11.0326Z" fill="#506683" stroke="#506683" stroke-width="1.5" stroke-linejoin="round"/>
<path d="M18.3333 13.1152C18.3333 14.0357 15.9082 14.7819 12.9167 14.7819C9.92508 14.7819 7.5 14.0357 7.5 13.1152" stroke="#506683" stroke-width="1.5" stroke-linejoin="round"/>
<path d="M18.3333 9.36523V16.6986C18.3333 17.7111 15.9082 18.5319 12.9167 18.5319C9.92508 18.5319 7.5 17.7111 7.5 16.6986V9.36523" stroke="#506683" stroke-width="1.5" stroke-linejoin="round"/>
<path d="M7.08341 5.19857C10.075 5.19857 12.5001 4.45238 12.5001 3.5319C12.5001 2.61143 10.075 1.86523 7.08341 1.86523C4.09187 1.86523 1.66675 2.61143 1.66675 3.5319C1.66675 4.45238 4.09187 5.19857 7.08341 5.19857Z" stroke="#506683" stroke-width="1.5" stroke-linejoin="round"/>
<path d="M5.83341 9.36589C4.16675 9.36589 1.97501 8.67797 1.66675 7.69922M5.83341 13.5326C4.16675 13.5326 1.97501 12.8446 1.66675 11.8659" stroke="#506683" stroke-width="1.5" stroke-linejoin="round"/>
<path d="M5.83341 17.6999C4.16675 17.6999 1.97501 17.012 1.66675 16.0332V3.5332" stroke="#506683" stroke-width="1.5" stroke-linejoin="round"/>
<path d="M12.5 6.0332V3.5332" stroke="#506683" stroke-width="1.5" stroke-linejoin="round"/>
</svg>
