<svg width="32" height="32" viewBox="0 0 32 32" fill="none" xmlns="http://www.w3.org/2000/svg">
<g id="mdi:twitter">
<path id="Vector" d="M29.9467 8.00016C28.92 8.46683 27.8133 8.7735 26.6667 8.92016C27.84 8.2135 28.7467 7.0935 29.1733 5.74683C28.0667 6.4135 26.84 6.88016 25.5467 7.14683C24.4933 6.00016 23.0133 5.3335 21.3333 5.3335C18.2 5.3335 15.64 7.8935 15.64 11.0535C15.64 11.5068 15.6933 11.9468 15.7867 12.3602C11.04 12.1202 6.81334 9.84016 4.00001 6.38683C3.50668 7.22683 3.22668 8.2135 3.22668 9.2535C3.22668 11.2402 4.22668 13.0002 5.77334 14.0002C4.82668 14.0002 3.94668 13.7335 3.17334 13.3335V13.3735C3.17334 16.1468 5.14668 18.4668 7.76001 18.9868C6.92098 19.2164 6.04014 19.2484 5.18668 19.0802C5.54882 20.2168 6.25806 21.2114 7.2147 21.9241C8.17134 22.6368 9.32727 23.0317 10.52 23.0535C8.49818 24.6541 5.99201 25.5192 3.41334 25.5068C2.96001 25.5068 2.50668 25.4802 2.05334 25.4268C4.58668 27.0535 7.60001 28.0002 10.8267 28.0002C21.3333 28.0002 27.1067 19.2802 27.1067 11.7202C27.1067 11.4668 27.1067 11.2268 27.0933 10.9735C28.2133 10.1735 29.1733 9.16016 29.9467 8.00016Z" fill="white"/>
</g>
</svg>
