<svg width="32" height="32" viewBox="0 0 32 32" fill="none" xmlns="http://www.w3.org/2000/svg">
<g clip-path="url(#clip0_418_4717)">
<path d="M0.682877 15.809C0.682127 18.4977 1.39013 21.1229 2.73638 23.4368L0.554127 31.3428L8.70813 29.2214C10.9634 30.4396 13.4903 31.078 16.0581 31.0781H16.0649C24.5418 31.0781 31.4421 24.2337 31.4458 15.8211C31.4474 11.7445 29.8489 7.91125 26.9446 5.02728C24.0409 2.14356 20.179 0.554595 16.0643 0.552734C7.58638 0.552734 0.686502 7.39677 0.683002 15.809" fill="url(#paint0_linear_418_4717)"/>
<path d="M0.13375 15.8035C0.132875 18.5889 0.86625 21.308 2.2605 23.7048L0 31.8942L8.44637 29.6967C10.7736 30.9558 13.3939 31.6196 16.0601 31.6206H16.067C24.848 31.6206 31.9963 24.53 32 15.8162C32.0015 11.5932 30.3455 7.62208 27.3375 4.63479C24.3291 1.64788 20.3291 0.00173643 16.067 0C7.2845 0 0.13725 7.08961 0.13375 15.8035ZM5.16375 23.292L4.84837 22.7953C3.52262 20.7036 2.82288 18.2865 2.82387 15.8045C2.82675 8.56174 8.76725 2.66915 16.072 2.66915C19.6095 2.67064 22.934 4.03895 25.4345 6.52155C27.9349 9.0044 29.3108 12.3049 29.3099 15.8152C29.3066 23.058 23.366 28.9513 16.067 28.9513H16.0618C13.6851 28.9501 11.3542 28.3168 9.3215 27.12L8.83775 26.8354L3.8255 28.1393L5.16375 23.2919V23.292Z" fill="url(#paint1_linear_418_4717)"/>
<path d="M12.0848 9.19759C11.7865 8.53986 11.4726 8.52658 11.189 8.51505C10.9568 8.50513 10.6913 8.50587 10.426 8.50587C10.1605 8.50587 9.72913 8.60497 9.3645 9.00001C8.9995 9.39542 7.971 10.351 7.971 12.2944C7.971 14.238 9.39763 16.1162 9.5965 16.38C9.79563 16.6433 12.3506 20.7591 16.3971 22.3425C19.7601 23.6584 20.4445 23.3967 21.1744 23.3307C21.9044 23.2649 23.5299 22.3754 23.8615 21.453C24.1934 20.5307 24.1934 19.7401 24.0939 19.5749C23.9944 19.4103 23.7289 19.3115 23.3307 19.114C22.9325 18.9164 20.9752 17.9608 20.6104 17.8289C20.2454 17.6972 19.98 17.6315 19.7145 18.027C19.449 18.4219 18.6866 19.3115 18.4543 19.5749C18.2221 19.839 17.9897 19.8718 17.5917 19.6742C17.1934 19.476 15.9113 19.0594 14.3901 17.7138C13.2066 16.6667 12.4076 15.3737 12.1754 14.9782C11.9431 14.5833 12.1505 14.3692 12.3501 14.1724C12.529 13.9954 12.7484 13.7111 12.9476 13.4805C13.1461 13.2498 13.2124 13.0852 13.3451 12.8218C13.478 12.5581 13.4115 12.3274 13.3121 12.1298C13.2124 11.9322 12.4388 9.97862 12.0848 9.19759Z" fill="white"/>
</g>
<defs>
<linearGradient id="paint0_linear_418_4717" x1="1545.14" y1="3079.56" x2="1545.14" y2="0.552734" gradientUnits="userSpaceOnUse">
<stop stop-color="#1FAF38"/>
<stop offset="1" stop-color="#60D669"/>
</linearGradient>
<linearGradient id="paint1_linear_418_4717" x1="1600" y1="3189.42" x2="1600" y2="0" gradientUnits="userSpaceOnUse">
<stop stop-color="#F9F9F9"/>
<stop offset="1" stop-color="white"/>
</linearGradient>
<clipPath id="clip0_418_4717">
<rect width="32" height="32" fill="white"/>
</clipPath>
</defs>
</svg>
