<svg xmlns="http://www.w3.org/2000/svg" width="16" height="16" viewBox="0 0 16 16" fill="none">
  <path d="M5.48224 1.3592L4.20362 1.95021C2.23454 2.86039 1.25 3.31548 1.25 4.0625C1.25 4.80952 2.23454 5.26461 4.20362 6.17479L5.48224 6.76581C6.72143 7.3386 7.34103 7.625 8 7.625C8.65897 7.625 9.27857 7.3386 10.5178 6.7658L11.7964 6.17479C13.7655 5.26461 14.75 4.80952 14.75 4.0625C14.75 3.31548 13.7655 2.86039 11.7964 1.95021L10.5178 1.35919C9.27857 0.786398 8.65897 0.5 8 0.5C7.34103 0.5 6.72143 0.786398 5.48224 1.3592Z" stroke="white" stroke-linecap="round" stroke-linejoin="round"/>
  <path d="M14.591 7.323C14.697 7.47207 14.75 7.62743 14.75 7.79828C14.75 8.53467 13.7655 8.98328 11.7964 9.8805L10.5178 10.4631C9.27857 11.0277 8.65897 11.3101 8 11.3101C7.34103 11.3101 6.72143 11.0277 5.48224 10.4631L4.20362 9.8805C2.23454 8.98328 1.25 8.53467 1.25 7.79828C1.25 7.62743 1.303 7.47207 1.409 7.323" stroke="white" stroke-linecap="round" stroke-linejoin="round"/>
  <path d="M14.2825 11.1997C14.5942 11.4479 14.75 11.6954 14.75 11.9883C14.75 12.7247 13.7655 13.1733 11.7964 14.0705L10.5178 14.6531C9.27857 15.2178 8.65897 15.5001 8 15.5001C7.34103 15.5001 6.72143 15.2178 5.48224 14.6532L4.20362 14.0705C2.23454 13.1733 1.25 12.7247 1.25 11.9883C1.25 11.6954 1.40583 11.4479 1.7175 11.1997" stroke="white" stroke-linecap="round" stroke-linejoin="round"/>
</svg>