<svg xmlns="http://www.w3.org/2000/svg" width="16" height="16" viewBox="0 0 16 16" fill="none">
  <path d="M2 7.25V10.25C2 12.7249 2 13.9623 2.76884 14.7312C3.53769 15.5 4.77513 15.5 7.25 15.5H8.75C11.2249 15.5 12.4623 15.5 13.2312 14.7312C14 13.9623 14 12.7249 14 10.25V7.25" stroke="white" stroke-linecap="round" stroke-linejoin="round"/>
  <path d="M1.25 5.75C1.25 5.18923 1.25 4.90885 1.40072 4.7C1.49946 4.56318 1.64148 4.44957 1.8125 4.37058C2.07356 4.25 2.42404 4.25 3.125 4.25H12.875C13.576 4.25 13.9264 4.25 14.1875 4.37058C14.3585 4.44957 14.5005 4.56318 14.5993 4.7C14.75 4.90885 14.75 5.18923 14.75 5.75C14.75 6.31077 14.75 6.59115 14.5993 6.8C14.5005 6.93682 14.3585 7.05043 14.1875 7.12942C13.9264 7.25 13.576 7.25 12.875 7.25H3.125C2.42404 7.25 2.07356 7.25 1.8125 7.12942C1.64148 7.05043 1.49946 6.93682 1.40072 6.8C1.25 6.59115 1.25 6.31077 1.25 5.75Z" stroke="white" stroke-linejoin="round"/>
  <path d="M3.5 1.83929C3.5 1.09962 4.09962 0.5 4.83929 0.5H5.10714C6.70482 0.5 8 1.79518 8 3.39286V4.25H5.91071C4.57931 4.25 3.5 3.17069 3.5 1.83929Z" stroke="white" stroke-linejoin="round"/>
  <path d="M12.5 1.83929C12.5 1.09962 11.9004 0.5 11.1607 0.5H10.8929C9.29518 0.5 8 1.79518 8 3.39286V4.25H10.0893C11.4207 4.25 12.5 3.17069 12.5 1.83929Z" stroke="white" stroke-linejoin="round"/>
  <path d="M8 7.25L8 15.5" stroke="white" stroke-linecap="round" stroke-linejoin="round"/>
</svg>