<svg width="18" height="18" viewBox="0 0 18 18" fill="none" xmlns="http://www.w3.org/2000/svg">
<path d="M3 8.25V11.25C3 13.7249 3 14.9623 3.76884 15.7312C4.53769 16.5 5.77513 16.5 8.25 16.5H9.75C12.2249 16.5 13.4623 16.5 14.2312 15.7312C15 14.9623 15 13.7249 15 11.25V8.25" stroke="white" stroke-linecap="round" stroke-linejoin="round"/>
<path d="M2.25 6.75C2.25 6.18923 2.25 5.90885 2.40072 5.7C2.49946 5.56318 2.64148 5.44957 2.8125 5.37058C3.07356 5.25 3.42404 5.25 4.125 5.25H13.875C14.576 5.25 14.9264 5.25 15.1875 5.37058C15.3585 5.44957 15.5005 5.56318 15.5993 5.7C15.75 5.90885 15.75 6.18923 15.75 6.75C15.75 7.31077 15.75 7.59115 15.5993 7.8C15.5005 7.93682 15.3585 8.05043 15.1875 8.12942C14.9264 8.25 14.576 8.25 13.875 8.25H4.125C3.42404 8.25 3.07356 8.25 2.8125 8.12942C2.64148 8.05043 2.49946 7.93682 2.40072 7.8C2.25 7.59115 2.25 7.31077 2.25 6.75Z" stroke="white" stroke-linejoin="round"/>
<path d="M4.5 2.83929C4.5 2.09962 5.09962 1.5 5.83929 1.5H6.10714C7.70482 1.5 9 2.79518 9 4.39286V5.25H6.91071C5.57931 5.25 4.5 4.17069 4.5 2.83929Z" stroke="white" stroke-linejoin="round"/>
<path d="M13.5 2.83929C13.5 2.09962 12.9004 1.5 12.1607 1.5H11.8929C10.2952 1.5 9 2.79518 9 4.39286V5.25H11.0893C12.4207 5.25 13.5 4.17069 13.5 2.83929Z" stroke="white" stroke-linejoin="round"/>
<path d="M9 8.25L9 16.5" stroke="white" stroke-linecap="round" stroke-linejoin="round"/>
</svg>
