<svg width="18" height="18" viewBox="0 0 18 18" fill="none" xmlns="http://www.w3.org/2000/svg">
<path d="M5.25 8.25H4.5C2.018 8.25 1.5 8.768 1.5 11.25V13.5C1.5 15.982 2.018 16.5 4.5 16.5H13.5C15.982 16.5 16.5 15.982 16.5 13.5V11.25C16.5 9.59169 16.2688 8.81011 15.375 8.474" stroke="white" stroke-linecap="round" stroke-linejoin="round"/>
<path d="M9 13.5L13.5 13.5" stroke="white" stroke-linecap="round" stroke-linejoin="round"/>
<path d="M12.9332 2.34968C13.2685 1.98584 13.4362 1.80392 13.6143 1.6978C14.0442 1.44176 14.5736 1.4338 15.0107 1.6768C15.1918 1.77751 15.3646 1.95431 15.7103 2.30791C16.0559 2.66151 16.2287 2.83831 16.3272 3.02362C16.5647 3.47075 16.5569 4.01228 16.3066 4.45208C16.2029 4.63435 16.0251 4.80587 15.6694 5.14892L11.4378 9.2306C10.3167 10.312 9.62227 10.5362 8.06942 10.4956C7.78751 10.4882 7.64655 10.4845 7.56461 10.3914C7.48268 10.2982 7.49386 10.1544 7.51624 9.86686C7.61937 8.5411 7.85297 7.86178 8.75524 6.8828L12.9332 2.34968Z" stroke="white" stroke-linejoin="round"/>
</svg>
