<svg xmlns="http://www.w3.org/2000/svg" width="16" height="16" viewBox="0 0 16 16" fill="none">
  <path d="M0.5 12.5C0.5 11.3447 0.5 10.767 0.760047 10.3426C0.905557 10.1052 1.1052 9.90556 1.34265 9.76005C1.76701 9.5 2.34467 9.5 3.5 9.5C4.65533 9.5 5.23299 9.5 5.65735 9.76005C5.8948 9.90556 6.09444 10.1052 6.23995 10.3426C6.5 10.767 6.5 11.3447 6.5 12.5C6.5 13.6553 6.5 14.233 6.23995 14.6574C6.09444 14.8948 5.8948 15.0944 5.65735 15.24C5.23299 15.5 4.65533 15.5 3.5 15.5C2.34467 15.5 1.76701 15.5 1.34265 15.24C1.1052 15.0944 0.905557 14.8948 0.760047 14.6574C0.5 14.233 0.5 13.6553 0.5 12.5Z" stroke="white"/>
  <path d="M9.5 12.5C9.5 11.3447 9.5 10.767 9.76005 10.3426C9.90556 10.1052 10.1052 9.90556 10.3426 9.76005C10.767 9.5 11.3447 9.5 12.5 9.5C13.6553 9.5 14.233 9.5 14.6574 9.76005C14.8948 9.90556 15.0944 10.1052 15.24 10.3426C15.5 10.767 15.5 11.3447 15.5 12.5C15.5 13.6553 15.5 14.233 15.24 14.6574C15.0944 14.8948 14.8948 15.0944 14.6574 15.24C14.233 15.5 13.6553 15.5 12.5 15.5C11.3447 15.5 10.767 15.5 10.3426 15.24C10.1052 15.0944 9.90556 14.8948 9.76005 14.6574C9.5 14.233 9.5 13.6553 9.5 12.5Z" stroke="white"/>
  <path d="M0.5 3.5C0.5 2.34467 0.5 1.76701 0.760047 1.34265C0.905557 1.1052 1.1052 0.905557 1.34265 0.760047C1.76701 0.5 2.34467 0.5 3.5 0.5C4.65533 0.5 5.23299 0.5 5.65735 0.760047C5.8948 0.905557 6.09444 1.1052 6.23995 1.34265C6.5 1.76701 6.5 2.34467 6.5 3.5C6.5 4.65533 6.5 5.23299 6.23995 5.65735C6.09444 5.8948 5.8948 6.09444 5.65735 6.23995C5.23299 6.5 4.65533 6.5 3.5 6.5C2.34467 6.5 1.76701 6.5 1.34265 6.23995C1.1052 6.09444 0.905557 5.8948 0.760047 5.65735C0.5 5.23299 0.5 4.65533 0.5 3.5Z" stroke="white"/>
  <path d="M9.5 3.5C9.5 2.34467 9.5 1.76701 9.76005 1.34265C9.90556 1.1052 10.1052 0.905557 10.3426 0.760047C10.767 0.5 11.3447 0.5 12.5 0.5C13.6553 0.5 14.233 0.5 14.6574 0.760047C14.8948 0.905557 15.0944 1.1052 15.24 1.34265C15.5 1.76701 15.5 2.34467 15.5 3.5C15.5 4.65533 15.5 5.23299 15.24 5.65735C15.0944 5.8948 14.8948 6.09444 14.6574 6.23995C14.233 6.5 13.6553 6.5 12.5 6.5C11.3447 6.5 10.767 6.5 10.3426 6.23995C10.1052 6.09444 9.90556 5.8948 9.76005 5.65735C9.5 5.23299 9.5 4.65533 9.5 3.5Z" stroke="white"/>
</svg>