<svg xmlns="http://www.w3.org/2000/svg" width="16" height="16" viewBox="0 0 16 16" fill="none">
  <path d="M8 2.74976V15.4998M8 15.4998H5.75M8 15.4998H10.25" stroke="white" stroke-linecap="round" stroke-linejoin="round"/>
  <path d="M14.75 8.74976L12.875 4.99976L11 8.74976" stroke="white" stroke-linecap="round" stroke-linejoin="round"/>
  <path d="M5 8.74976L3.125 4.99976L1.25 8.74976" stroke="white" stroke-linecap="round" stroke-linejoin="round"/>
  <path d="M2 4.99976H2.78615C3.73375 4.99976 4.65313 4.603 5.39307 3.87476C6.91717 2.37476 9.08283 2.37476 10.6069 3.87476C11.3469 4.603 12.2663 4.99976 13.2138 4.99976H14" stroke="white" stroke-linecap="round" stroke-linejoin="round"/>
  <path d="M12.875 11.7498C13.891 11.7498 14.7758 11.1245 15.2354 10.2009C15.4835 9.70244 15.6075 9.45322 15.3811 9.10149C15.1547 8.74976 14.78 8.74976 14.0306 8.74976H11.7194C10.97 8.74976 10.5953 8.74976 10.3689 9.10149C10.1425 9.45322 10.2665 9.70244 10.5146 10.2009C10.9742 11.1245 11.859 11.7498 12.875 11.7498Z" stroke="white"/>
  <path d="M3.125 11.7498C4.14104 11.7498 5.02581 11.1245 5.48545 10.2009C5.73351 9.70244 5.85754 9.45322 5.63113 9.10149C5.40472 8.74976 5.03 8.74976 4.28056 8.74976H1.96944C1.22 8.74976 0.845282 8.74976 0.618869 9.10149C0.392457 9.45322 0.516488 9.70244 0.764551 10.2009C1.22419 11.1245 2.10896 11.7498 3.125 11.7498Z" stroke="white"/>
  <path d="M9.125 1.62476C9.125 2.24608 8.62132 2.74976 8 2.74976C7.37868 2.74976 6.875 2.24608 6.875 1.62476C6.875 1.00344 7.37868 0.499756 8 0.499756C8.62132 0.499756 9.125 1.00344 9.125 1.62476Z" stroke="white"/>
</svg>