<svg width="18" height="18" viewBox="0 0 18 18" fill="none" xmlns="http://www.w3.org/2000/svg">
<path d="M4 12.75C4 13.0261 4.22386 13.25 4.5 13.25C4.77614 13.25 5 13.0261 5 12.75H4ZM15.841 2.15901L16.1945 1.80546L16.1945 1.80546L15.841 2.15901ZM12.1517 14.2385L12.6393 14.1281V14.1281L12.1517 14.2385ZM1.62948 14.2385L1.1418 14.3488L1.62948 14.2385ZM1.64585 13.0317L2.03608 13.3443L1.64585 13.0317ZM9 2H12V1H9V2ZM16 6V13.5H17V6H16ZM5 12.75V6H4V12.75H5ZM9 1C7.95348 1 7.11828 0.998938 6.46452 1.08683C5.79636 1.17667 5.24335 1.36757 4.80546 1.80546L5.51256 2.51256C5.73368 2.29144 6.0405 2.15284 6.59776 2.07792C7.16941 2.00106 7.92521 2 9 2V1ZM5 6C5 4.92521 5.00106 4.16941 5.07792 3.59776C5.15284 3.0405 5.29144 2.73368 5.51256 2.51256L4.80546 1.80546C4.36757 2.24335 4.17667 2.79636 4.08684 3.46451C3.99894 4.11828 4 4.95347 4 6H5ZM12 2C13.0748 2 13.8306 2.00106 14.4022 2.07792C14.9595 2.15284 15.2663 2.29144 15.4874 2.51256L16.1945 1.80546C15.7567 1.36757 15.2036 1.17667 14.5355 1.08683C13.8817 0.998938 13.0465 1 12 1V2ZM17 6C17 4.95348 17.0011 4.11828 16.9132 3.46451C16.8233 2.79636 16.6324 2.24335 16.1945 1.80546L15.4874 2.51256C15.7086 2.73368 15.8472 3.0405 15.9221 3.59776C15.9989 4.16941 16 4.92521 16 6H17ZM16 13.5C16 14.2824 15.8573 14.92 15.5772 15.3471C15.3183 15.7417 14.9159 16 14.2453 16V17C15.2349 17 15.9599 16.5867 16.4133 15.8956C16.8455 15.2368 17 14.3744 17 13.5H16ZM14.2453 16C13.8279 16 13.5069 15.8218 13.2443 15.5033C12.97 15.1706 12.766 14.6878 12.6393 14.1281L11.664 14.3488C11.8101 14.9947 12.0632 15.6427 12.4727 16.1394C12.8939 16.6502 13.4833 17 14.2453 17V16ZM3.72308 16C3.30577 16 2.98471 15.8218 2.72211 15.5033C2.44782 15.1706 2.24378 14.6878 2.11715 14.1281L1.1418 14.3488C1.28793 14.9947 1.54104 15.6427 1.95053 16.1394C2.37171 16.6502 2.96108 17 3.72308 17V16ZM3.72308 17H14.2453V16H3.72308V17ZM2.9715 13.25H10.4873V12.25H2.9715V13.25ZM2.11715 14.1281C2.04319 13.8012 2.00504 13.6233 2.00041 13.4918C1.99707 13.397 2.0124 13.3739 2.03608 13.3443L1.25563 12.7191C1.05364 12.9712 0.991025 13.2431 1.00103 13.527C1.00975 13.7743 1.07625 14.059 1.1418 14.3488L2.11715 14.1281ZM2.9715 12.25C2.62225 12.25 2.2982 12.2484 2.0362 12.292C1.74713 12.3401 1.46933 12.4523 1.25563 12.7191L2.03608 13.3443C2.04803 13.3294 2.0664 13.3007 2.2004 13.2784C2.36148 13.2516 2.58742 13.25 2.9715 13.25V12.25ZM12.6393 14.1281C12.5541 13.7512 12.4829 13.4343 12.4046 13.1934C12.329 12.9605 12.2187 12.7016 11.9952 12.5233L11.3716 13.305C11.3539 13.291 11.3903 13.3075 11.4535 13.5023C11.5142 13.6891 11.5743 13.9523 11.664 14.3488L12.6393 14.1281ZM10.4873 13.25C10.8288 13.25 11.0445 13.2507 11.2023 13.2677C11.2768 13.2757 11.3207 13.2858 11.3463 13.2942C11.3583 13.2982 11.365 13.3014 11.3681 13.303C11.3696 13.3038 11.3705 13.3043 11.3709 13.3046C11.3713 13.3048 11.3715 13.305 11.3716 13.305L11.9952 12.5233C11.7836 12.3545 11.5382 12.298 11.3092 12.2734C11.0854 12.2493 10.8061 12.25 10.4873 12.25V13.25Z" fill="white"/>
<path d="M7.875 5.25H13.125" stroke="white" stroke-linecap="round"/>
<path d="M7.875 8.25H10.5" stroke="white" stroke-linecap="round"/>
</svg>
