<svg xmlns="http://www.w3.org/2000/svg" width="16" height="16" viewBox="0 0 16 16" fill="none">
  <path d="M3 11.75C3 12.0261 3.22386 12.25 3.5 12.25C3.77614 12.25 4 12.0261 4 11.75H3ZM14.841 1.15901L15.1945 0.805457L15.1945 0.805456L14.841 1.15901ZM11.1517 13.2385L11.6393 13.1281V13.1281L11.1517 13.2385ZM0.629479 13.2385L0.141804 13.3488L0.629479 13.2385ZM0.645853 12.0317L1.03608 12.3443L0.645853 12.0317ZM8 1H11V0H8V1ZM15 5V12.5H16V5H15ZM4 11.75V5H3V11.75H4ZM8 0C6.95348 0 6.11828 -0.00106186 5.46452 0.0868348C4.79636 0.176665 4.24335 0.367567 3.80546 0.805456L4.51256 1.51256C4.73368 1.29144 5.0405 1.15284 5.59776 1.07792C6.16941 1.00106 6.92521 1 8 1V0ZM4 5C4 3.92521 4.00106 3.16941 4.07792 2.59776C4.15284 2.0405 4.29144 1.73368 4.51256 1.51256L3.80546 0.805456C3.36757 1.24335 3.17667 1.79636 3.08684 2.46451C2.99894 3.11828 3 3.95347 3 5H4ZM11 1C12.0748 1 12.8306 1.00106 13.4022 1.07792C13.9595 1.15284 14.2663 1.29144 14.4874 1.51256L15.1945 0.805456C14.7567 0.367567 14.2036 0.176665 13.5355 0.0868348C12.8817 -0.00106186 12.0465 0 11 0V1ZM16 5C16 3.95348 16.0011 3.11828 15.9132 2.46451C15.8233 1.79636 15.6324 1.24335 15.1945 0.805457L14.4874 1.51256C14.7086 1.73368 14.8472 2.0405 14.9221 2.59776C14.9989 3.16941 15 3.92521 15 5H16ZM15 12.5C15 13.2824 14.8573 13.92 14.5772 14.3471C14.3183 14.7417 13.9159 15 13.2453 15V16C14.2349 16 14.9599 15.5867 15.4133 14.8956C15.8455 14.2368 16 13.3744 16 12.5H15ZM13.2453 15C12.8279 15 12.5069 14.8218 12.2443 14.5033C11.97 14.1706 11.766 13.6878 11.6393 13.1281L10.664 13.3488C10.8101 13.9947 11.0632 14.6427 11.4727 15.1394C11.8939 15.6502 12.4833 16 13.2453 16V15ZM2.72308 15C2.30577 15 1.98471 14.8218 1.72211 14.5033C1.44782 14.1706 1.24378 13.6878 1.11715 13.1281L0.141804 13.3488C0.287929 13.9947 0.541036 14.6427 0.95053 15.1394C1.37171 15.6502 1.96108 16 2.72308 16V15ZM2.72308 16H13.2453V15H2.72308V16ZM1.9715 12.25H9.48733V11.25H1.9715V12.25ZM1.11715 13.1281C1.04319 12.8012 1.00504 12.6233 1.00041 12.4918C0.99707 12.397 1.0124 12.3739 1.03608 12.3443L0.255626 11.7191C0.0536436 11.9712 -0.00897455 12.2431 0.00103119 12.527C0.009745 12.7743 0.0762459 13.059 0.141804 13.3488L1.11715 13.1281ZM1.9715 11.25C1.62225 11.25 1.2982 11.2484 1.0362 11.292C0.74713 11.3401 0.469333 11.4523 0.255626 11.7191L1.03608 12.3443C1.04803 12.3294 1.0664 12.3007 1.2004 12.2784C1.36148 12.2516 1.58742 12.25 1.9715 12.25V11.25ZM11.6393 13.1281C11.5541 12.7512 11.4829 12.4343 11.4046 12.1934C11.329 11.9605 11.2187 11.7016 10.9952 11.5233L10.3716 12.305C10.3539 12.291 10.3903 12.3075 10.4535 12.5023C10.5142 12.6891 10.5743 12.9523 10.664 13.3488L11.6393 13.1281ZM9.48733 12.25C9.82877 12.25 10.0445 12.2507 10.2023 12.2677C10.2768 12.2757 10.3207 12.2858 10.3463 12.2942C10.3583 12.2982 10.365 12.3014 10.3681 12.303C10.3696 12.3038 10.3705 12.3043 10.3709 12.3046C10.3713 12.3048 10.3715 12.305 10.3716 12.305L10.9952 11.5233C10.7836 11.3545 10.5382 11.298 10.3092 11.2734C10.0854 11.2493 9.80606 11.25 9.48733 11.25V12.25Z" fill="white"/>
  <path d="M6.875 4.25H12.125" stroke="white" stroke-linecap="round"/>
  <path d="M6.875 7.25H9.5" stroke="white" stroke-linecap="round"/>
</svg>