<svg width="124" height="120" viewBox="0 0 124 120" fill="none" xmlns="http://www.w3.org/2000/svg">
<path d="M8.0061 111.701H115.994V48.3386H8.0061V111.701Z" fill="#687588"/>
<path d="M8.0061 48.3385L52.7815 80.0203L8.0061 111.701V48.3385Z" fill="#D0D6DD"/>
<path d="M115.994 48.3385L71.2183 80.0203L115.994 111.701V48.3385Z" fill="#D0D6DD"/>
<path d="M71.2559 80.0203H52.7817V79.9938L8.0061 111.702H115.994L71.2559 80.0203Z" fill="#A0AEC0"/>
<path d="M61.8951 4.68726L8.00635 48.201H115.994L61.8951 4.68726Z" fill="#A0AEC0"/>
<mask id="mask0_360_16246" style="mask-type:alpha" maskUnits="userSpaceOnUse" x="4" y="3" width="115" height="78">
<path d="M4.51855 3.55554L8.22226 48.4444L52.7963 80.0926L71.2963 80.0741L115.982 48.3518L118.296 5.92591L4.51855 3.55554Z" fill="#FDBD0E"/>
</mask>
<g mask="url(#mask0_360_16246)">
<path d="M98.3709 86.9733H25.6291C25.0845 86.9733 24.6431 86.5317 24.6431 85.987V14.436C24.6431 13.8917 25.0845 13.4504 25.6291 13.4504H98.3709C98.9155 13.4504 99.3568 13.8917 99.3568 14.436V85.987C99.3568 86.5317 98.9155 86.9733 98.3709 86.9733Z" fill="#F9FAFB"/>
<path d="M89.9307 50.0135H34.0691V46.0941H89.9307V50.0135Z" fill="#D0D6DD"/>
<path d="M89.9307 65.4917H34.0691V61.5726H89.9307V65.4917Z" fill="#D0D6DD"/>
<path d="M89.9307 57.7525H34.0691V53.8331H89.9307V57.7525Z" fill="#D0D6DD"/>
<path d="M89.9307 73.2313H34.0691V69.3119H89.9307V73.2313Z" fill="#D0D6DD"/>
<path d="M89.9307 34.566H34.0691V30.6469H89.9307V34.566Z" fill="#D0D6DD"/>
<path d="M89.9307 26.8267H34.0691V22.9073H89.9307V26.8267Z" fill="#D0D6DD"/>
<path d="M89.9307 42.3053H34.0691V38.3859H89.9307V42.3053Z" fill="#D0D6DD"/>
<path d="M89.9307 80.9706H34.0691V77.0511H89.9307V80.9706Z" fill="#D0D6DD"/>
</g>
</svg>
