<svg width="32" height="32" viewBox="0 0 32 32" fill="none" xmlns="http://www.w3.org/2000/svg">
<circle cx="16" cy="16" r="16" fill="#FBFBFC"/>
<circle cx="16" cy="16" r="15.5" stroke="#D0D6DD" stroke-opacity="0.6"/>
<path d="M16.2966 21.18C13.9926 21.18 12.2826 19.956 11.6706 18.39L13.2906 16.824C13.7046 18.318 14.7666 19.218 16.3146 19.218C17.7726 19.218 18.5646 18.354 18.5646 16.95C18.5646 15.258 17.4306 14.574 16.1886 14.574C15.0366 14.574 14.2266 15.06 14.1186 15.834L14.1006 15.996L12.1206 15.798L12.5166 8.94H19.8426V10.812H14.4606L14.1726 15.042C14.5506 13.962 15.5226 13.098 17.1246 13.098C19.4106 13.098 20.7426 14.646 20.7426 17.04C20.7426 19.524 19.0326 21.18 16.2966 21.18Z" fill="#1F2937"/>
</svg>
