<svg width="37" height="34" viewBox="0 0 37 34" fill="none" xmlns="http://www.w3.org/2000/svg">
<path d="M18 10H34M18 18H23M34 18H29M18 26H23M34 26H29" stroke="#0F1625" stroke-width="2" stroke-linecap="round" stroke-linejoin="round"/>
<path d="M11 9H9C5.22876 9 3.34315 9 2.17157 10.1716C1 11.3431 1 13.2288 1 17V30C1 32.7614 3.23858 35 6 35C8.76142 35 11 32.7614 11 30V9Z" stroke="#0F1625" stroke-width="2" stroke-linecap="round" stroke-linejoin="round"/>
<path d="M29 1H19C17.1401 1 16.2101 1 15.4471 1.20445C13.3765 1.75925 11.7592 3.37653 11.2044 5.44709C11 6.21008 11 7.14006 11 9V30C11 32.7614 8.76142 35 6 35H29C34.6569 35 37.4853 35 39.2426 33.2426C41 31.4853 41 28.6569 41 23V13C41 7.34315 41 4.51472 39.2426 2.75736C37.4853 1 34.6569 1 29 1Z" stroke="#0F1625" stroke-width="2" stroke-linecap="round" stroke-linejoin="round"/>
</svg>
