<svg width="44" height="44" viewBox="0 0 44 44" fill="none" xmlns="http://www.w3.org/2000/svg">
<path d="M36.6665 20.167V18.3337C36.6665 11.4197 36.6665 7.96276 34.3923 5.81488C32.118 3.66699 28.4577 3.66699 21.1371 3.66699L19.1959 3.66699C11.8753 3.66699 8.21496 3.66699 5.94073 5.81488C3.6665 7.96276 3.6665 11.4197 3.6665 18.3337L3.6665 25.667C3.6665 32.5809 3.6665 36.0379 5.94073 38.1858C8.21496 40.3337 11.8753 40.3337 19.1959 40.3337H20.1665" stroke="#0F1625" stroke-width="1.5" stroke-linecap="round"/>
<path d="M12.833 12.834H27.4997" stroke="#0F1625" stroke-width="1.5" stroke-linecap="round"/>
<path d="M12.833 22H27.4997" stroke="#0F1625" stroke-width="1.5" stroke-linecap="round"/>
<path d="M28.1373 40.0691L27.9805 39.3357L28.1373 40.0691ZM25.931 37.8628L26.6644 38.0197L25.931 37.8628ZM27.5377 33.2051L27.0074 32.6748L27.5377 33.2051ZM32.795 38.4624L32.2647 37.9321L32.795 38.4624ZM39.9596 28.3754L40.6092 28.0004L39.9596 28.3754ZM38.8594 32.3981L39.3897 32.9284L38.8594 32.3981ZM39.9596 31.1635L40.6092 31.5385L39.9596 31.1635ZM37.6248 26.0405L37.9998 25.391V25.391L37.6248 26.0405ZM33.6021 27.1408L34.1324 27.6711L33.6021 27.1408ZM34.8367 26.0405L34.4617 25.391V25.391L34.8367 26.0405ZM38.3291 31.8677L32.2647 37.9321L33.3254 38.9928L39.3897 32.9284L38.3291 31.8677ZM28.0681 33.7355L34.1324 27.6711L33.0718 26.6104L27.0074 32.6748L28.0681 33.7355ZM27.9805 39.3357C27.3237 39.4762 26.9143 39.5617 26.622 39.5803C26.3433 39.598 26.3653 39.5395 26.413 39.5872L25.3523 40.6479C25.7573 41.0528 26.2742 41.1054 26.7172 41.0772C27.1468 41.0499 27.686 40.9326 28.2941 40.8026L27.9805 39.3357ZM25.1976 37.706C25.0676 38.3141 24.9502 38.8534 24.9229 39.2829C24.8947 39.7259 24.9473 40.2429 25.3523 40.6479L26.413 39.5872C26.4606 39.6349 26.4022 39.6569 26.4199 39.3781C26.4385 39.0859 26.524 38.6765 26.6644 38.0197L25.1976 37.706ZM38.3291 27.6711C38.9743 28.3164 39.1884 28.5395 39.3101 28.7504L40.6092 28.0004C40.3638 27.5754 39.9667 27.1874 39.3897 26.6104L38.3291 27.6711ZM39.3897 32.9284C39.9667 32.3514 40.3638 31.9634 40.6092 31.5385L39.3101 30.7885C39.1884 30.9993 38.9743 31.2224 38.3291 31.8677L39.3897 32.9284ZM39.3101 28.7504C39.6742 29.381 39.6742 30.1579 39.3101 30.7885L40.6092 31.5385C41.2412 30.4438 41.2412 29.0951 40.6092 28.0004L39.3101 28.7504ZM39.3897 26.6104C38.8127 26.0334 38.4247 25.6364 37.9998 25.391L37.2498 26.69C37.4606 26.8118 37.6838 27.0258 38.3291 27.6711L39.3897 26.6104ZM34.1324 27.6711C34.7777 27.0258 35.0009 26.8118 35.2117 26.69L34.4617 25.391C34.0368 25.6364 33.6488 26.0334 33.0718 26.6104L34.1324 27.6711ZM37.9998 25.391C36.9051 24.759 35.5564 24.759 34.4617 25.391L35.2117 26.69C35.8423 26.326 36.6192 26.326 37.2498 26.69L37.9998 25.391ZM32.2647 37.9321C31.7938 38.403 31.1812 38.6727 30.4329 38.8637C30.0584 38.9593 29.6655 39.0316 29.2495 39.1035C28.8423 39.1738 28.4037 39.2452 27.9805 39.3357L28.2941 40.8026C28.6798 40.7201 29.0764 40.6556 29.5048 40.5816C29.9244 40.5091 30.3677 40.4285 30.804 40.3171C31.6773 40.0941 32.5847 39.7334 33.3254 38.9928L32.2647 37.9321ZM26.6644 38.0197C26.7549 37.5965 26.8263 37.1579 26.8967 36.7507C26.9685 36.3346 27.0408 35.9417 27.1364 35.5672C27.3275 34.819 27.5972 34.2064 28.0681 33.7355L27.0074 32.6748C26.2667 33.4155 25.906 34.3229 25.6831 35.1962C25.5717 35.6325 25.4911 36.0757 25.4186 36.4953C25.3445 36.9238 25.2801 37.3204 25.1976 37.706L26.6644 38.0197Z" fill="#0F1625"/>
</svg>
