<svg xmlns="http://www.w3.org/2000/svg" width="16" height="18" viewBox="0 0 16 18" fill="none">
  <path d="M8.44118 0.666748C11.7687 0.666748 13.4325 0.666748 14.4663 1.64306C15.5 2.61937 15.5 4.19072 15.5 7.33342V10.6667C15.5 13.8094 15.5 15.3808 14.4663 16.3571C13.4325 17.3334 11.7687 17.3334 8.44118 17.3334H7.55882C4.23126 17.3334 2.56748 17.3334 1.53374 16.3571C0.5 15.3808 0.5 13.8094 0.5 10.6667L0.5 7.33341C0.5 4.19072 0.5 2.61937 1.53374 1.64306C2.56748 0.666748 4.23126 0.666748 7.55882 0.666748L8.44118 0.666748Z" stroke="#1F2937" stroke-linecap="round"/>
  <path d="M4.6665 4.8335H11.3332" stroke="#1F2937" stroke-linecap="round"/>
  <path d="M4.6665 9H11.3332" stroke="#1F2937" stroke-linecap="round"/>
  <path d="M4.6665 13.1667L7.99984 13.1667" stroke="#1F2937" stroke-linecap="round"/>
</svg>