<svg xmlns="http://www.w3.org/2000/svg" width="16" height="16" viewBox="0 0 16 16" fill="none">
  <path d="M10.5 12.6875C10.4387 14.2308 9.15258 15.5412 7.4297 15.499C7.02887 15.4892 6.53344 15.3495 5.5426 15.07C3.15801 14.3974 1.08796 13.267 0.591296 10.7346C0.5 10.2691 0.5 9.74532 0.5 8.69771L0.5 7.30229C0.5 6.25468 0.5 5.73087 0.591296 5.26538C1.08796 2.73304 3.15801 1.60263 5.5426 0.930022C6.53345 0.650537 7.02887 0.510795 7.4297 0.500989C9.15257 0.458841 10.4387 1.76923 10.5 3.31251" stroke="#EF0000" stroke-linecap="round"/>
  <path d="M15.5002 8.00008H6.3335M15.5002 8.00008C15.5002 7.41656 13.8382 6.32636 13.4168 5.91675M15.5002 8.00008C15.5002 8.5836 13.8382 9.67381 13.4168 10.0834" stroke="#EF0000" stroke-linecap="round" stroke-linejoin="round"/>
</svg>