<svg xmlns="http://www.w3.org/2000/svg" width="16" height="18" viewBox="0 0 16 18" fill="none">
  <path d="M3.48131 11.9014C2.30234 12.6034 -0.788863 14.0368 1.09388 15.8306C2.01359 16.7068 3.03791 17.3334 4.32572 17.3334H11.6743C12.9621 17.3334 13.9864 16.7068 14.9061 15.8306C16.7889 14.0368 13.6977 12.6034 12.5187 11.9014C9.75401 10.2552 6.24599 10.2552 3.48131 11.9014Z" stroke="#323B49" stroke-linecap="round" stroke-linejoin="round"/>
  <path d="M11.75 4.41675C11.75 6.48782 10.0711 8.16675 8 8.16675C5.92893 8.16675 4.25 6.48782 4.25 4.41675C4.25 2.34568 5.92893 0.666748 8 0.666748C10.0711 0.666748 11.75 2.34568 11.75 4.41675Z" stroke="#323B49"/>
</svg>