<svg xmlns="http://www.w3.org/2000/svg" width="39" height="30" viewBox="0 0 39 30" fill="none">
  <path d="M34.1234 25C35.3722 25 36.3656 24.2141 37.2574 23.1152C39.0832 20.8657 36.0855 19.0681 34.9423 18.1877C33.78 17.2927 32.4824 16.7857 31.1667 16.6667M29.5 13.3333C31.8012 13.3333 33.6667 11.4679 33.6667 9.16667C33.6667 6.86548 31.8012 5 29.5 5" stroke="#323B49" stroke-width="2" stroke-linecap="round"/>
  <path d="M4.87692 25C3.62809 25 2.63477 24.2141 1.7429 23.1152C-0.0828603 20.8657 2.91478 19.0681 4.05807 18.1877C5.22028 17.2927 6.51796 16.7857 7.83366 16.6667M8.66699 13.3333C6.36581 13.3333 4.50033 11.4679 4.50033 9.16667C4.50033 6.86548 6.36581 5 8.66699 5" stroke="#323B49" stroke-width="2" stroke-linecap="round"/>
  <path d="M12.9733 20.185C11.2704 21.238 6.8053 23.3882 9.52483 26.0787C10.8533 27.393 12.3329 28.333 14.193 28.333H24.8076C26.6678 28.333 28.1474 27.393 29.4758 26.0787C32.1953 23.3882 27.7303 21.238 26.0273 20.185C22.0339 17.7157 16.9668 17.7157 12.9733 20.185Z" stroke="#323B49" stroke-width="2" stroke-linecap="round" stroke-linejoin="round"/>
  <path d="M25.3337 7.49984C25.3337 10.7215 22.722 13.3332 19.5003 13.3332C16.2787 13.3332 13.667 10.7215 13.667 7.49984C13.667 4.27818 16.2787 1.6665 19.5003 1.6665C22.722 1.6665 25.3337 4.27818 25.3337 7.49984Z" stroke="#323B49" stroke-width="2"/>
</svg>