<svg xmlns="http://www.w3.org/2000/svg" width="36" height="36" viewBox="0 0 36 36" fill="none">
  <path d="M17.9993 34.6666C27.2041 34.6666 34.666 27.2047 34.666 17.9999C34.666 8.79517 27.204 1.33325 17.9993 1.33325C10.5365 1.33325 4.28979 6.23807 2.16602 12.9999H6.33268" stroke="#323B49" stroke-width="2" stroke-linecap="round" stroke-linejoin="round"/>
  <path d="M18 11.3333V17.9999L21.3333 21.3333" stroke="#323B49" stroke-width="2" stroke-linecap="round" stroke-linejoin="round"/>
  <path d="M1.33301 18C1.33301 18.5622 1.35835 19.1181 1.4079 19.6667M12.9997 34.6667C12.4303 34.4793 11.8742 34.2607 11.333 34.0129M3.34867 26.3333C3.02725 25.714 2.74055 25.0721 2.4913 24.4104M6.05171 30.1775C6.56117 30.7264 7.10477 31.2403 7.67892 31.7154" stroke="#323B49" stroke-width="2" stroke-linecap="round" stroke-linejoin="round"/>
</svg>