<svg xmlns="http://www.w3.org/2000/svg" width="35" height="36" viewBox="0 0 35 36" fill="none">
  <path d="M27.4997 8C29.6665 8.2145 31.1251 8.69927 32.2137 9.79485C34.1663 11.7599 34.1663 14.9227 34.1663 21.2482C34.1663 27.5737 34.1663 30.7365 32.2137 32.7016C30.2611 34.6667 27.1184 34.6667 20.833 34.6667H14.1663C7.88095 34.6667 4.73825 34.6667 2.78563 32.7016C0.833008 30.7365 0.833008 27.5737 0.833008 21.2482C0.833008 14.9227 0.833008 11.7599 2.78563 9.79485C3.87427 8.69927 5.33282 8.2145 7.49967 8" stroke="#0F1625" stroke-width="1.5" stroke-linecap="round"/>
  <path d="M28.3457 21.3333H28.3307" stroke="#323B49" stroke-width="2" stroke-linecap="round" stroke-linejoin="round"/>
  <path d="M6.67969 21.3333H6.66472" stroke="#323B49" stroke-width="2" stroke-linecap="round" stroke-linejoin="round"/>
  <path d="M21.6663 21.3332C21.6663 23.6344 19.8009 25.4998 17.4997 25.4998C15.1985 25.4998 13.333 23.6344 13.333 21.3332C13.333 19.032 15.1985 17.1665 17.4997 17.1665C19.8009 17.1665 21.6663 19.032 21.6663 21.3332Z" stroke="#0F1625" stroke-width="1.5"/>
  <path d="M13.333 5.49992C14.1522 4.65709 16.3326 1.33325 17.4997 1.33325M21.6663 5.49992C20.8471 4.65709 18.6667 1.33325 17.4997 1.33325M17.4997 1.33325V11.3333" stroke="#323B49" stroke-width="2" stroke-linecap="round" stroke-linejoin="round"/>
</svg>