<svg xmlns="http://www.w3.org/2000/svg" width="36" height="30" viewBox="0 0 36 30" fill="none">
  <path d="M16.333 5.83325L16.333 27.4999" stroke="#0F1625" stroke-width="1.5" stroke-linecap="round"/>
  <path d="M16.333 27.4999C15.9625 27.4999 15.2056 27.0965 13.6918 26.2896C12.1532 25.4696 10.0275 24.6535 7.30385 24.1413C4.24848 23.5668 2.7208 23.2795 2.0269 22.4313C1.33301 21.5831 1.33301 20.2245 1.33301 17.5073V6.8275C1.33301 3.8558 1.33301 2.36995 2.41418 1.45495C3.49536 0.539937 4.76485 0.778665 7.30385 1.25612C12.3156 2.19858 15.3027 4.17001 16.333 5.30182C17.3633 4.17001 20.3504 2.19858 25.3622 1.25612C27.9012 0.778665 29.1707 0.539937 30.2518 1.45495C31.333 2.36995 31.333 3.8558 31.333 6.8275V11.6666" stroke="#0F1625" stroke-width="1.5" stroke-linecap="round" stroke-linejoin="round"/>
  <path d="M23.5792 28.9261L23.4224 28.1927L23.5792 28.9261ZM21.5735 26.9204L22.3069 27.0772L21.5735 26.9204ZM23.0341 22.6861L22.5038 22.1558L23.0341 22.6861ZM34.3268 18.2954L34.9763 17.9204L34.3268 18.2954ZM34.3268 20.83L34.9763 21.205L34.3268 20.83ZM32.2042 16.1728L32.5792 15.5233V15.5233L32.2042 16.1728ZM28.5472 17.173L29.0775 17.7034L28.5472 17.173ZM29.6696 16.1728L29.2946 15.5233V15.5233L29.6696 16.1728ZM32.7962 21.4221L27.2832 26.9351L28.3438 27.9958L33.8569 22.4827L32.7962 21.4221ZM23.5645 23.2164L29.0775 17.7034L28.0169 16.6427L22.5038 22.1558L23.5645 23.2164ZM23.4224 28.1927C22.8231 28.3208 22.4568 28.3971 22.1973 28.4136C21.9514 28.4293 21.9959 28.3759 22.0598 28.4398L20.9992 29.5004C21.3879 29.8892 21.8824 29.9367 22.2926 29.9106C22.6893 29.8854 23.1854 29.7773 23.736 29.6595L23.4224 28.1927ZM20.8401 26.7636C20.7223 27.3142 20.6142 27.8103 20.589 28.207C20.5629 28.6172 20.6104 29.1117 20.9992 29.5004L22.0598 28.4398C22.1237 28.5037 22.0703 28.5482 22.086 28.3022C22.1025 28.0428 22.1788 27.6765 22.3069 27.0772L20.8401 26.7636ZM32.7962 17.7034C33.3859 18.2931 33.5722 18.4885 33.6772 18.6704L34.9763 17.9204C34.7476 17.5244 34.3783 17.1642 33.8569 16.6427L32.7962 17.7034ZM33.8569 22.4827C34.3783 21.9613 34.7476 21.6011 34.9763 21.205L33.6772 20.455C33.5722 20.637 33.3859 20.8323 32.7962 21.4221L33.8569 22.4827ZM33.6772 18.6704C33.996 19.2226 33.996 19.9029 33.6772 20.455L34.9763 21.205C35.563 20.1888 35.563 18.9367 34.9763 17.9204L33.6772 18.6704ZM33.8569 16.6427C33.3354 16.1213 32.9752 15.752 32.5792 15.5233L31.8292 16.8223C32.0111 16.9274 32.2065 17.1137 32.7962 17.7034L33.8569 16.6427ZM29.0775 17.7034C29.6672 17.1137 29.8626 16.9274 30.0446 16.8223L29.2946 15.5233C28.8985 15.752 28.5383 16.1213 28.0169 16.6427L29.0775 17.7034ZM32.5792 15.5233C31.5629 14.9366 30.3108 14.9366 29.2946 15.5233L30.0446 16.8223C30.5967 16.5036 31.277 16.5036 31.8292 16.8223L32.5792 15.5233ZM27.2832 26.9351C26.8673 27.351 26.3238 27.592 25.6492 27.7642C25.3116 27.8504 24.9567 27.9158 24.5786 27.9811C24.2094 28.0449 23.8088 28.1101 23.4224 28.1927L23.736 29.6595C24.0849 29.5849 24.4435 29.5266 24.834 29.4592C25.2156 29.3932 25.6209 29.3196 26.0203 29.2176C26.8199 29.0134 27.6582 28.6814 28.3438 27.9958L27.2832 26.9351ZM22.3069 27.0772C22.3895 26.6908 22.4547 26.2902 22.5185 25.921C22.5838 25.5429 22.6492 25.188 22.7354 24.8503C22.9076 24.1758 23.1486 23.6323 23.5645 23.2164L22.5038 22.1558C21.8182 22.8414 21.4861 23.6797 21.282 24.4793C21.18 24.8787 21.1064 25.284 21.0404 25.6656C20.973 26.0561 20.9146 26.4147 20.8401 26.7636L22.3069 27.0772Z" fill="#0F1625"/>
</svg>