<svg width="32" height="32" viewBox="0 0 32 32" fill="none" xmlns="http://www.w3.org/2000/svg">
<rect width="32" height="32" rx="6" fill="#F0F2F5"/>
<path d="M19.333 17.6666C19.333 18.357 19.8927 18.9166 20.583 18.9166C21.2734 18.9166 21.833 18.357 21.833 17.6666C21.833 16.9763 21.2734 16.4166 20.583 16.4166C19.8927 16.4166 19.333 16.9763 19.333 17.6666Z" stroke="#0F1625" stroke-width="1.5"/>
<path d="M14.3327 11.8333H19.3327C21.6897 11.8333 22.8682 11.8333 23.6005 12.5656C24.3327 13.2978 24.3327 14.4763 24.3327 16.8333V18.5C24.3327 20.857 24.3327 22.0355 23.6005 22.7678C22.8682 23.5 21.6897 23.5 19.3327 23.5H14.3327C11.19 23.5 9.61864 23.5 8.64233 22.5237C7.66602 21.5474 7.66602 19.976 7.66602 16.8333V15.1667C7.66602 12.024 7.66602 10.4526 8.64233 9.47631C9.61864 8.5 11.19 8.5 14.3327 8.5H17.666C18.441 8.5 18.8285 8.5 19.1464 8.58519C20.0091 8.81635 20.683 9.49022 20.9142 10.353C20.9993 10.6709 20.9993 11.0584 20.9993 11.8333" stroke="#0F1625" stroke-width="1.5" stroke-linecap="round"/>
</svg>
