<svg width="32" height="32" viewBox="0 0 32 32" fill="none" xmlns="http://www.w3.org/2000/svg">
<rect width="32" height="32" rx="6" fill="#F0F2F5"/>
<rect x="9.33301" y="7.66663" width="14.5833" height="16.6667" rx="4.44444" stroke="#0F1625" stroke-width="1.5"/>
<path d="M14.825 17.4506C14.301 17.8016 12.9272 18.5183 13.7639 19.4152C14.1727 19.8533 14.628 20.1666 15.2003 20.1666H18.4663C19.0387 20.1666 19.494 19.8533 19.9027 19.4152C20.7395 18.5183 19.3656 17.8016 18.8416 17.4506C17.6129 16.6275 16.0538 16.6275 14.825 17.4506Z" stroke="#0F1625" stroke-width="1.5"/>
<path d="M18.5 13.4999C18.5 14.4204 17.7538 15.1666 16.8333 15.1666C15.9129 15.1666 15.1667 14.4204 15.1667 13.4999C15.1667 12.5794 15.9129 11.8333 16.8333 11.8333C17.7538 11.8333 18.5 12.5794 18.5 13.4999Z" stroke="#0F1625" stroke-width="1.5"/>
<path d="M10.1663 11L8.08301 11M10.1663 16L8.08301 16M10.1663 21H8.08301" stroke="#0F1625" stroke-width="1.5" stroke-linecap="round" stroke-linejoin="round"/>
</svg>
