<svg width="32" height="32" viewBox="0 0 32 32" fill="none" xmlns="http://www.w3.org/2000/svg">
<rect width="32" height="32" rx="6" fill="#F0F2F5"/>
<path d="M13.2025 8.62129L11.7818 9.27797C9.59393 10.2893 8.5 10.7949 8.5 11.625C8.5 12.455 9.59394 12.9606 11.7818 13.9719L13.2025 14.6286C14.5794 15.2651 15.2678 15.5833 16 15.5833C16.7322 15.5833 17.4206 15.2651 18.7975 14.6286L20.2182 13.9719C22.4061 12.9606 23.5 12.455 23.5 11.625C23.5 10.7949 22.4061 10.2893 20.2182 9.27797L18.7975 8.62129C17.4206 7.98485 16.7322 7.66663 16 7.66663C15.2678 7.66663 14.5794 7.98485 13.2025 8.62129Z" stroke="#0F1625" stroke-width="1.5" stroke-linecap="round" stroke-linejoin="round"/>
<path d="M23.3233 15.2476C23.4411 15.4132 23.5 15.5858 23.5 15.7757C23.5 16.5939 22.4061 17.0923 20.2182 18.0892L18.7975 18.7366C17.4206 19.3639 16.7322 19.6776 16 19.6776C15.2678 19.6776 14.5794 19.3639 13.2025 18.7366L11.7818 18.0892C9.59394 17.0923 8.5 16.5939 8.5 15.7757C8.5 15.5858 8.55889 15.4132 8.67667 15.2476" stroke="#0F1625" stroke-width="1.5" stroke-linecap="round" stroke-linejoin="round"/>
<path d="M22.9806 19.5551C23.3269 19.8309 23.5 20.1058 23.5 20.4313C23.5 21.2495 22.4061 21.748 20.2182 22.7449L18.7975 23.3922C17.4206 24.0196 16.7322 24.3333 16 24.3333C15.2678 24.3333 14.5794 24.0196 13.2025 23.3922L11.7818 22.7449C9.59394 21.748 8.5 21.2495 8.5 20.4313C8.5 20.1058 8.67315 19.8309 9.01945 19.5551" stroke="#0F1625" stroke-width="1.5" stroke-linecap="round" stroke-linejoin="round"/>
</svg>
