<svg width="32" height="32" viewBox="0 0 32 32" fill="none" xmlns="http://www.w3.org/2000/svg">
<rect width="32" height="32" rx="6" fill="#F0F2F5"/>
<g clip-path="url(#clip0_0_22598)">
<path d="M10.2493 20.1666C10.2493 20.5808 10.5851 20.9166 10.9993 20.9166C11.4136 20.9166 11.7493 20.5808 11.7493 20.1666H10.2493ZM23.6005 8.39886L24.1308 7.86853V7.86853L23.6005 8.39886ZM19.5012 21.8205L20.2327 21.655V21.655L19.5012 21.8205ZM7.80988 21.8205L7.07837 21.986L7.80988 21.8205ZM7.82807 20.4796L8.41341 20.9485H8.41341L7.82807 20.4796ZM15.9994 8.41663H19.3327V6.91663H15.9994V8.41663ZM23.5827 12.6666V21H25.0827V12.6666H23.5827ZM11.7493 20.1666V12.6666H10.2493V20.1666H11.7493ZM15.9994 6.91663C14.842 6.91663 13.8986 6.91503 13.1562 7.01484C12.3923 7.11755 11.7299 7.33984 11.2013 7.86853L12.2619 8.92919C12.4655 8.72565 12.7585 8.58181 13.3561 8.50147C13.9753 8.41822 14.7996 8.41663 15.9994 8.41663V6.91663ZM11.7493 12.6666C11.7493 11.4669 11.7509 10.6426 11.8342 10.0234C11.9145 9.42576 12.0584 9.13273 12.2619 8.92919L11.2013 7.86853C10.6726 8.39722 10.4503 9.05956 10.3476 9.82351C10.2478 10.5659 10.2493 11.5093 10.2493 12.6666H11.7493ZM19.3327 8.41663C20.5324 8.41663 21.3567 8.41822 21.9759 8.50147C22.5735 8.58181 22.8666 8.72565 23.0701 8.92919L24.1308 7.86853C23.6021 7.33984 22.9398 7.11755 22.1758 7.01484C21.4334 6.91503 20.49 6.91663 19.3327 6.91663V8.41663ZM25.0827 12.6666C25.0827 11.5093 25.0843 10.5659 24.9845 9.82351C24.8818 9.05956 24.6595 8.39722 24.1308 7.86853L23.0701 8.92919C23.2737 9.13273 23.4175 9.42576 23.4978 10.0234C23.5811 10.6426 23.5827 11.4669 23.5827 12.6666H25.0827ZM23.5827 21C23.5827 21.8514 23.4265 22.5162 23.1448 22.9456C22.8949 23.3265 22.5106 23.5833 21.8274 23.5833V25.0833C22.9891 25.0833 23.8574 24.5939 24.399 23.7684C24.9087 22.9914 25.0827 21.9895 25.0827 21H23.5827ZM21.8274 23.5833C21.4307 23.5833 21.1262 23.4186 20.8652 23.1021C20.5868 22.7643 20.3696 22.2601 20.2327 21.655L18.7697 21.986C18.9358 22.7204 19.2266 23.4725 19.7079 24.0563C20.2067 24.6613 20.9137 25.0833 21.8274 25.0833V23.5833ZM10.1361 23.5833C9.73945 23.5833 9.43489 23.4186 9.17395 23.1021C8.89547 22.7643 8.6783 22.2601 8.54139 21.655L7.07837 21.986C7.24452 22.7204 7.53529 23.4725 8.01657 24.0563C8.51539 24.6613 9.22242 25.0833 10.1361 25.0833V23.5833ZM10.1361 25.0833H21.8274V23.5833H10.1361V25.0833ZM9.30101 20.9166H17.6519V19.4166H9.30101V20.9166ZM8.54139 21.655C8.50176 21.4798 8.4712 21.3442 8.44907 21.2269C8.42696 21.1097 8.41814 21.0348 8.41635 20.984C8.41468 20.9367 8.41991 20.9271 8.41711 20.9367C8.41316 20.9501 8.40724 20.9562 8.41341 20.9485L7.24273 20.0107C6.98364 20.3341 6.90487 20.6846 6.91728 21.0369C6.92776 21.3341 7.00716 21.6712 7.07837 21.986L8.54139 21.655ZM9.30101 19.4166C8.91973 19.4166 8.5406 19.4142 8.22987 19.4659C7.87852 19.5244 7.51942 19.6653 7.24273 20.0107L8.41341 20.9485C8.41355 20.9484 8.41275 20.9494 8.41098 20.9512C8.40919 20.953 8.40682 20.9552 8.40396 20.9575C8.39773 20.9626 8.39252 20.9656 8.39053 20.9666C8.38797 20.9679 8.40835 20.9569 8.47616 20.9456C8.63552 20.919 8.86749 20.9166 9.30101 20.9166V19.4166ZM20.2327 21.655C20.1388 21.24 20.0576 20.8775 19.9672 20.5992C19.8807 20.333 19.7438 19.9982 19.4486 19.7627L18.5132 20.9354C18.4467 20.8823 18.4727 20.8535 18.5406 21.0626C18.6046 21.2596 18.6691 21.5416 18.7697 21.986L20.2327 21.655ZM17.6519 20.9166C18.0357 20.9166 18.2631 20.9177 18.4255 20.9351C18.5802 20.9518 18.5619 20.9742 18.5132 20.9354L19.4486 19.7627C19.1712 19.5415 18.8552 19.4727 18.5859 19.4437C18.3244 19.4156 18.0017 19.4166 17.6519 19.4166V20.9166Z" fill="#0F1625"/>
<path d="M14.749 11.8333H20.5824" stroke="#0F1625" stroke-width="1.5" stroke-linecap="round"/>
<path d="M14.749 15.1666H17.6657" stroke="#0F1625" stroke-width="1.5" stroke-linecap="round"/>
</g>
<defs>
<clipPath id="clip0_0_22598">
<rect width="20" height="20" fill="white" transform="translate(6 6)"/>
</clipPath>
</defs>
</svg>
