<svg xmlns="http://www.w3.org/2000/svg" width="16" height="16" viewBox="0 0 16 16" fill="none">
  <path d="M11 9.5C11 10.1213 11.5037 10.625 12.125 10.625C12.7463 10.625 13.25 10.1213 13.25 9.5C13.25 8.87868 12.7463 8.375 12.125 8.375C11.5037 8.375 11 8.87868 11 9.5Z" stroke="white"/>
  <path d="M6.5 4.25H11C13.1213 4.25 14.182 4.25 14.841 4.90901C15.5 5.56802 15.5 6.62868 15.5 8.75V10.25C15.5 12.3713 15.5 13.432 14.841 14.091C14.182 14.75 13.1213 14.75 11 14.75H6.5C3.67157 14.75 2.25736 14.75 1.37868 13.8713C0.5 12.9926 0.5 11.5784 0.5 8.75V7.25C0.5 4.42157 0.5 3.00736 1.37868 2.12868C2.25736 1.25 3.67157 1.25 6.5 1.25H9.5C10.1975 1.25 10.5462 1.25 10.8323 1.32667C11.6088 1.53472 12.2153 2.1412 12.4233 2.91766C12.5 3.20378 12.5 3.55252 12.5 4.25" stroke="white" stroke-linecap="round"/>
</svg>