<svg width="32" height="32" viewBox="0 0 32 32" fill="none" xmlns="http://www.w3.org/2000/svg">
<path d="M6.19961 3.2C6.19961 1.76406 7.36367 0.6 8.79961 0.6H21.5996C21.6966 0.6 21.7896 0.638528 21.8582 0.707106L30.4925 9.34142C30.5611 9.41 30.5996 9.50301 30.5996 9.6V28.8C30.5996 30.2359 29.4356 31.4 27.9996 31.4H8.79961C7.36367 31.4 6.19961 30.2359 6.19961 28.8V3.2Z" fill="white" stroke="#D0D6DD" stroke-width="1.2"/>
<path d="M21.5996 0.399902V6.3999C21.5996 8.16721 23.0323 9.5999 24.7996 9.5999H30.7996" stroke="#D0D6DD" stroke-width="1.2"/>
<rect x="0.799805" y="14.2002" width="20.8" height="13.2" rx="1.6" fill="#D92D20"/>
<path d="M3.86603 23.8003V17.9821H6.16149C6.60278 17.9821 6.97872 18.0664 7.28933 18.235C7.59994 18.4016 7.83668 18.6336 7.99956 18.931C8.16433 19.2264 8.24672 19.5673 8.24672 19.9537C8.24672 20.3401 8.16338 20.681 7.99672 20.9764C7.83005 21.2719 7.58857 21.502 7.27228 21.6668C6.95789 21.8315 6.57721 21.9139 6.13024 21.9139H4.66717V20.9281H5.93137C6.16812 20.9281 6.36319 20.8874 6.5166 20.806C6.6719 20.7226 6.78744 20.6081 6.86319 20.4622C6.94084 20.3145 6.97967 20.145 6.97967 19.9537C6.97967 19.7605 6.94084 19.592 6.86319 19.448C6.78744 19.3022 6.6719 19.1895 6.5166 19.11C6.3613 19.0285 6.16433 18.9878 5.92569 18.9878H5.09615V23.8003H3.86603ZM11.1082 23.8003H9.04572V17.9821H11.1253C11.7105 17.9821 12.2143 18.0986 12.6366 18.3315C13.059 18.5626 13.3838 18.895 13.6111 19.3287C13.8402 19.7624 13.9548 20.2814 13.9548 20.8855C13.9548 21.4916 13.8402 22.0124 13.6111 22.448C13.3838 22.8836 13.0571 23.2179 12.6309 23.4509C12.2067 23.6838 11.6991 23.8003 11.1082 23.8003ZM10.2758 22.7463H11.0571C11.4207 22.7463 11.7266 22.6819 11.9747 22.5531C12.2247 22.4225 12.4122 22.2207 12.5372 21.948C12.6641 21.6734 12.7275 21.3192 12.7275 20.8855C12.7275 20.4556 12.6641 20.1043 12.5372 19.8315C12.4122 19.5588 12.2256 19.3581 11.9775 19.2293C11.7294 19.1005 11.4236 19.0361 11.0599 19.0361H10.2758V22.7463ZM14.866 23.8003V17.9821H18.7183V18.9963H16.0961V20.3827H18.4626V21.3969H16.0961V23.8003H14.866Z" fill="white"/>
</svg>
