<svg xmlns="http://www.w3.org/2000/svg" width="18" height="14" viewBox="0 0 18 14" fill="none">
  <path d="M15.5805 11.5C16.1425 11.5 16.5895 11.1464 16.9908 10.6519C17.8124 9.63959 16.4635 8.83063 15.949 8.43445C15.426 8.03171 14.8421 7.80356 14.25 7.75M13.5 6.25C14.5355 6.25 15.375 5.41053 15.375 4.375C15.375 3.33947 14.5355 2.5 13.5 2.5" stroke="white" stroke-linecap="round"/>
  <path d="M2.41947 11.5C1.85749 11.5 1.4105 11.1464 1.00916 10.6519C0.187566 9.63959 1.5365 8.83063 2.05098 8.43445C2.57398 8.03171 3.15794 7.80356 3.75 7.75M4.125 6.25C3.08947 6.25 2.25 5.41053 2.25 4.375C2.25 3.33947 3.08947 2.5 4.125 2.5" stroke="white" stroke-linecap="round"/>
  <path d="M6.06285 9.33339C5.29652 9.80725 3.28724 10.7748 4.51102 11.9856C5.10883 12.577 5.77464 13 6.61172 13H11.3883C12.2254 13 12.8912 12.577 13.489 11.9856C14.7128 10.7748 12.7035 9.80725 11.9371 9.33339C10.1401 8.2222 7.85989 8.2222 6.06285 9.33339Z" stroke="white" stroke-linecap="round" stroke-linejoin="round"/>
  <path d="M11.625 3.625C11.625 5.07475 10.4497 6.25 9 6.25C7.55025 6.25 6.375 5.07475 6.375 3.625C6.375 2.17525 7.55025 1 9 1C10.4497 1 11.625 2.17525 11.625 3.625Z" stroke="white"/>
</svg>