<svg width="32" height="32" viewBox="0 0 32 32" fill="none" xmlns="http://www.w3.org/2000/svg">
<rect width="32" height="32" rx="6" fill="#F0F2F5"/>
<path d="M13.084 20.9999C14.5953 19.3718 17.3898 19.2951 18.9173 20.9999M17.6178 15.9999C17.6178 16.9204 16.8913 17.6666 15.9952 17.6666C15.099 17.6666 14.3725 16.9204 14.3725 15.9999C14.3725 15.0794 15.099 14.3333 15.9952 14.3333C16.8913 14.3333 17.6178 15.0794 17.6178 15.9999Z" stroke="#0F1625" stroke-width="1.5" stroke-linecap="round"/>
<path d="M13.917 9.33423C11.7133 9.34244 10.5345 9.4195 9.77126 10.1426C8.91699 10.9519 8.91699 12.2544 8.91699 14.8596V18.8069C8.91699 21.4121 8.91699 22.7146 9.77126 23.5239C10.6255 24.3333 12.0005 24.3333 14.7503 24.3333H17.2503C20.0002 24.3333 21.3751 24.3333 22.2294 23.5239C23.0837 22.7146 23.0837 21.4121 23.0837 18.8069V14.8596C23.0837 12.2544 23.0837 10.9519 22.2294 10.1426C21.4662 9.4195 20.2873 9.34244 18.0837 9.33423" stroke="#0F1625" stroke-width="1.5" stroke-linecap="round" stroke-linejoin="round"/>
<path d="M14.1438 9.02632C14.2237 8.68065 14.2637 8.50781 14.3405 8.36666C14.5194 8.03784 14.8493 7.79619 15.2432 7.70554C15.4123 7.66663 15.6083 7.66663 16.0003 7.66663C16.3924 7.66663 16.5884 7.66663 16.7575 7.70554C17.1513 7.79619 17.4813 8.03784 17.6601 8.36666C17.7369 8.50781 17.7769 8.68065 17.8569 9.02632L17.9263 9.32642C18.0681 9.93949 18.139 10.246 18.032 10.4818C17.9627 10.6345 17.8447 10.7653 17.6928 10.8576C17.4583 11 17.1107 11 16.4154 11H15.5852C14.89 11 14.5423 11 14.3078 10.8576C14.156 10.7653 14.0379 10.6345 13.9686 10.4818C13.8617 10.246 13.9326 9.93949 14.0744 9.32642L14.1438 9.02632Z" stroke="#0F1625" stroke-width="1.5"/>
</svg>
