<svg xmlns="http://www.w3.org/2000/svg" width="18" height="18" viewBox="0 0 18 18" fill="none">
  <circle cx="5.25" cy="5.25" r="1.25" stroke="#687588" stroke-width="1.5" stroke-linecap="round" stroke-linejoin="round"/>
  <path d="M1.08301 9.00016C1.08301 5.26821 1.08301 3.40223 2.24238 2.24287C3.40175 1.0835 5.26772 1.0835 8.99967 1.0835C12.7316 1.0835 14.5976 1.0835 15.757 2.24287C16.9163 3.40223 16.9163 5.26821 16.9163 9.00016C16.9163 12.7321 16.9163 14.5981 15.757 15.7575C14.5976 16.9168 12.7316 16.9168 8.99967 16.9168C5.26772 16.9168 3.40175 16.9168 2.24238 15.7575C1.08301 14.5981 1.08301 12.7321 1.08301 9.00016Z" stroke="#687588" stroke-width="1.5"/>
  <path d="M3.16602 16.5C6.80973 12.1458 10.8944 6.40333 16.9139 10.2853" stroke="#687588" stroke-width="1.5"/>
</svg>