<svg width="16" height="16" viewBox="0 0 16 16" fill="none" xmlns="http://www.w3.org/2000/svg">
<path d="M3.10005 1.6C3.10005 0.88203 3.68208 0.3 4.40005 0.3H10.8C10.8485 0.3 10.895 0.319264 10.9293 0.353553L15.2465 4.67071C15.2808 4.705 15.3 4.75151 15.3 4.8V14.4C15.3 15.118 14.718 15.7 14 15.7H4.40005C3.68208 15.7 3.10005 15.118 3.10005 14.4V1.6Z" fill="white" stroke="#D0D6DD" stroke-width="0.6"/>
<path d="M10.8 0.200195V3.2002C10.8 4.08385 11.5164 4.8002 12.4 4.8002H15.4" stroke="#D0D6DD" stroke-width="0.6"/>
<rect x="0.300049" y="7.1001" width="11.4" height="6.6" rx="0.8" fill="#A056FF"/>
<path d="M1.96573 11.9004V8.9913H3.11346C3.3341 8.9913 3.52208 9.03344 3.67738 9.11772C3.83268 9.20105 3.95105 9.31706 4.03249 9.46573C4.11488 9.61346 4.15607 9.78391 4.15607 9.9771C4.15607 10.1703 4.11441 10.3407 4.03107 10.4885C3.94774 10.6362 3.827 10.7512 3.66886 10.8336C3.51166 10.916 3.32132 10.9572 3.09783 10.9572H2.3663V10.4643H2.9984C3.11677 10.4643 3.21431 10.444 3.29102 10.4032C3.36867 10.3616 3.42643 10.3043 3.46431 10.2314C3.50314 10.1575 3.52255 10.0727 3.52255 9.9771C3.52255 9.8805 3.50314 9.79622 3.46431 9.72425C3.42643 9.65134 3.36867 9.59499 3.29102 9.55522C3.21336 9.5145 3.11488 9.49414 2.99556 9.49414H2.58079V11.9004H1.96573ZM6.98881 8.9913V11.9004H6.45756L5.19194 10.0694H5.17063V11.9004H4.55558V8.9913H5.09535L6.35103 10.8208H6.3766V8.9913H6.98881ZM9.42596 9.93164C9.40607 9.86251 9.37814 9.80143 9.34215 9.7484C9.30617 9.69442 9.26213 9.64897 9.21005 9.61204C9.15891 9.57416 9.1002 9.54528 9.03391 9.52539C8.96857 9.5055 8.89613 9.49556 8.81658 9.49556C8.66791 9.49556 8.53723 9.53249 8.42454 9.60636C8.3128 9.68022 8.22567 9.7877 8.16317 9.9288C8.10067 10.069 8.06942 10.2404 8.06942 10.443C8.06942 10.6457 8.1002 10.818 8.16175 10.96C8.22331 11.1021 8.31043 11.2105 8.42312 11.2853C8.53581 11.3592 8.66886 11.3961 8.82227 11.3961C8.96147 11.3961 9.08031 11.3715 9.1788 11.3223C9.27823 11.2721 9.35399 11.2015 9.40607 11.1106C9.4591 11.0197 9.48562 10.9122 9.48562 10.7882L9.61062 10.8066H8.86062V10.3436H10.0779V10.71C10.0779 10.9657 10.024 11.1854 9.91602 11.3691C9.80806 11.5519 9.65939 11.693 9.46999 11.7924C9.2806 11.8909 9.06374 11.9402 8.81942 11.9402C8.5467 11.9402 8.30711 11.88 8.10067 11.7598C7.89424 11.6386 7.73325 11.4667 7.61772 11.2441C7.50314 11.0207 7.44585 10.7555 7.44585 10.4487C7.44585 10.2129 7.47994 10.0027 7.54812 9.818C7.61725 9.6324 7.71384 9.4752 7.83789 9.34641C7.96194 9.21763 8.10636 9.11961 8.27113 9.05238C8.4359 8.98514 8.61441 8.95153 8.80664 8.95153C8.97141 8.95153 9.12482 8.97567 9.26687 9.02397C9.40891 9.07132 9.53486 9.13855 9.64471 9.22567C9.7555 9.3128 9.84594 9.41649 9.91602 9.53675C9.98609 9.65607 10.0311 9.7877 10.051 9.93164H9.42596Z" fill="white"/>
</svg>
