<svg width="14" height="16" viewBox="0 0 14 16" fill="none" xmlns="http://www.w3.org/2000/svg">
<path d="M4.375 12.5C5.73516 11.0347 8.25022 10.9657 9.625 12.5M8.45547 8C8.45547 8.82843 7.80162 9.5 6.99506 9.5C6.1885 9.5 5.53465 8.82843 5.53465 8C5.53465 7.17157 6.1885 6.5 6.99506 6.5C7.80162 6.5 8.45547 7.17157 8.45547 8Z" stroke="white" stroke-linecap="round"/>
<path d="M5.125 2.00085C3.1417 2.00825 2.08075 2.0776 1.39384 2.72835C0.625 3.45673 0.625 4.62904 0.625 6.97366V10.5263C0.625 12.8709 0.625 14.0432 1.39384 14.7716C2.16269 15.5 3.40013 15.5 5.875 15.5H8.125C10.5999 15.5 11.8373 15.5 12.6062 14.7716C13.375 14.0432 13.375 12.8709 13.375 10.5263V6.97366C13.375 4.62904 13.375 3.45673 12.6062 2.72835C11.9192 2.0776 10.8583 2.00825 8.875 2.00085" stroke="white" stroke-linecap="round" stroke-linejoin="round"/>
<path d="M5.32912 1.72373C5.40108 1.41262 5.43706 1.25706 5.50616 1.13003C5.66714 0.834091 5.96409 0.61661 6.31859 0.535022C6.47076 0.5 6.64717 0.5 7 0.5C7.35283 0.5 7.52924 0.5 7.68141 0.535022C8.03591 0.61661 8.33286 0.834091 8.49384 1.13003C8.56294 1.25706 8.59892 1.41262 8.67088 1.72373L8.73336 1.99382C8.86098 2.54558 8.92479 2.82146 8.82853 3.03368C8.76617 3.17113 8.65992 3.28882 8.52324 3.37183C8.31221 3.5 7.99933 3.5 7.37358 3.5H6.62642C6.00067 3.5 5.68779 3.5 5.47676 3.37183C5.34008 3.28882 5.23383 3.17113 5.17147 3.03368C5.07521 2.82146 5.13902 2.54558 5.26664 1.99382L5.32912 1.72373Z" stroke="white"/>
</svg>
