<svg width="18" height="18" viewBox="0 0 18 18" fill="none" xmlns="http://www.w3.org/2000/svg">
<path d="M6.375 13.5C7.73516 12.0347 10.2502 11.9657 11.625 13.5M10.4555 9C10.4555 9.82843 9.80162 10.5 8.99506 10.5C8.1885 10.5 7.53465 9.82843 7.53465 9C7.53465 8.17157 8.1885 7.5 8.99506 7.5C9.80162 7.5 10.4555 8.17157 10.4555 9Z" stroke="#A0AEC0" stroke-linecap="round"/>
<path d="M7.125 3.00085C5.1417 3.00825 4.08075 3.0776 3.39384 3.72835C2.625 4.45673 2.625 5.62904 2.625 7.97366V11.5263C2.625 13.8709 2.625 15.0432 3.39384 15.7716C4.16269 16.5 5.40013 16.5 7.875 16.5H10.125C12.5999 16.5 13.8373 16.5 14.6062 15.7716C15.375 15.0432 15.375 13.8709 15.375 11.5263V7.97366C15.375 5.62904 15.375 4.45673 14.6062 3.72835C13.9192 3.0776 12.8583 3.00825 10.875 3.00085" stroke="#A0AEC0" stroke-linecap="round" stroke-linejoin="round"/>
<path d="M7.32912 2.72373C7.40108 2.41262 7.43706 2.25706 7.50616 2.13003C7.66714 1.83409 7.96409 1.61661 8.31859 1.53502C8.47076 1.5 8.64717 1.5 9 1.5C9.35283 1.5 9.52924 1.5 9.68141 1.53502C10.0359 1.61661 10.3329 1.83409 10.4938 2.13003C10.5629 2.25706 10.5989 2.41262 10.6709 2.72373L10.7334 2.99382C10.861 3.54558 10.9248 3.82146 10.8285 4.03368C10.7662 4.17113 10.6599 4.28882 10.5232 4.37183C10.3122 4.5 9.99933 4.5 9.37358 4.5H8.62642C8.00067 4.5 7.68779 4.5 7.47676 4.37183C7.34008 4.28882 7.23383 4.17113 7.17147 4.03368C7.07521 3.82146 7.13902 3.54558 7.26664 2.99382L7.32912 2.72373Z" stroke="#A0AEC0"/>
</svg>
