<svg xmlns="http://www.w3.org/2000/svg" width="18" height="18" viewBox="0 0 18 18" fill="none">
  <path d="M8.99984 14.0001C7.88939 14.5187 6.43073 14.8334 4.83317 14.8334C3.9449 14.8334 3.09958 14.7361 2.33317 14.5606C1.8405 14.4477 1.59417 14.3913 1.29899 14.1578C1.13064 14.0246 0.920528 13.7609 0.828267 13.567C0.666504 13.2272 0.666504 12.8976 0.666504 12.2384L0.666504 3.26172C0.666504 2.44103 1.5332 1.87735 2.33317 2.06058C3.09958 2.23612 3.9449 2.33341 4.83317 2.33341C6.43073 2.33341 7.88939 2.01872 8.99984 1.50008C10.1103 0.981445 11.5689 0.666748 13.1665 0.666748C14.0548 0.666748 14.9001 0.764038 15.6665 0.939579C16.1592 1.05242 16.4055 1.10884 16.7007 1.3424C16.869 1.47561 17.0791 1.73929 17.1714 1.93313C17.3332 2.273 17.3332 2.60258 17.3332 3.26172V12.2384C17.3332 13.0591 16.4665 13.6228 15.6665 13.4396C14.9001 13.264 14.0548 13.1667 13.1665 13.1667C11.5689 13.1667 10.1103 13.4814 8.99984 14.0001Z" stroke="#1F2937"/>
  <path d="M0.666504 16.5002C1.77695 17.0188 3.23561 17.3335 4.83317 17.3335C6.43073 17.3335 7.88939 17.0188 8.99984 16.5002C10.1103 15.9815 11.5689 15.6668 13.1665 15.6668C14.7641 15.6668 16.2227 15.9815 17.3332 16.5002" stroke="#1F2937" stroke-linecap="round"/>
  <path d="M11.0832 7.75008C11.0832 8.90067 10.1504 9.83341 8.99984 9.83341C7.84924 9.83341 6.9165 8.90067 6.9165 7.75008C6.9165 6.59949 7.84924 5.66675 8.99984 5.66675C10.1504 5.66675 11.0832 6.59949 11.0832 7.75008Z" stroke="#1F2937"/>
  <path d="M3.58301 8.5835L3.58301 8.59098" stroke="#1F2937" stroke-linecap="round" stroke-linejoin="round"/>
  <path d="M14.4165 6.91016L14.4165 6.91764" stroke="#1F2937" stroke-linecap="round" stroke-linejoin="round"/>
</svg>