<svg xmlns="http://www.w3.org/2000/svg" width="16" height="16" viewBox="0 0 16 16" fill="none">
  <path d="M10.625 8C10.625 9.44975 9.44975 10.625 8 10.625C6.55025 10.625 5.375 9.44975 5.375 8C5.375 6.55025 6.55025 5.375 8 5.375C9.44975 5.375 10.625 6.55025 10.625 8Z" stroke="white"/>
  <path d="M14.5201 9.64831C15.0537 9.45132 15.3205 9.35282 15.4102 9.22399C15.5 9.09517 15.5 8.88849 15.5 8.47515V7.52493C15.5 7.11155 15.5 6.90486 15.4102 6.77603C15.3204 6.64719 15.0536 6.54873 14.5201 6.35179C13.2775 5.89318 12.4987 4.59325 12.7055 3.29902C12.7972 2.72516 12.843 2.43823 12.7752 2.29724C12.7075 2.15625 12.5272 2.05391 12.1667 1.84924L11.3081 1.36171C10.9524 1.15975 10.7745 1.05877 10.6188 1.07278C10.4631 1.0868 10.2482 1.26623 9.81863 1.62509C8.77658 2.49551 7.2246 2.49548 6.18255 1.62502C5.75295 1.26616 5.53814 1.08673 5.38242 1.07271C5.22669 1.05869 5.04884 1.15967 4.69313 1.36163L3.83445 1.84916C3.474 2.05382 3.29377 2.15615 3.22601 2.29711C3.15825 2.43808 3.20404 2.72504 3.29564 3.29897C3.50219 4.59325 2.72282 5.89323 1.47995 6.35182C0.946372 6.5487 0.679585 6.64714 0.589792 6.77598C0.5 6.90482 0.5 7.11152 0.5 7.52493L0.5 8.47515C0.5 8.88852 0.5 9.09521 0.58978 9.22405C0.679559 9.35288 0.946353 9.45135 1.47994 9.64828C2.72253 10.1069 3.50128 11.4068 3.29453 12.7011C3.20285 13.2749 3.15701 13.5618 3.22477 13.7028C3.29253 13.8438 3.47278 13.9462 3.83327 14.1508L4.69194 14.6384C5.04769 14.8403 5.22556 14.9413 5.38131 14.9273C5.53705 14.9133 5.7518 14.7338 6.1813 14.3749C7.22398 13.5036 8.7772 13.5036 9.81988 14.3749C10.2494 14.7338 10.4641 14.9132 10.6199 14.9272C10.7756 14.9413 10.9535 14.8403 11.3092 14.6383L12.1679 14.1508C12.5284 13.9461 12.7087 13.8437 12.7765 13.7027C12.8442 13.5617 12.7983 13.2748 12.7066 12.701C12.4996 11.4068 13.2778 10.1069 14.5201 9.64831Z" stroke="white" stroke-linecap="round"/>
</svg>