<svg xmlns="http://www.w3.org/2000/svg" width="18" height="18" viewBox="0 0 18 18" fill="none">
  <path d="M2.15716 6.53099C1.56767 6.85008 0.0220724 7.50164 0.963446 8.31696C1.4233 8.71524 1.93546 9.00008 2.57937 9.00008H6.25364C6.89755 9.00008 7.40971 8.71524 7.86956 8.31696C8.81094 7.50164 7.26534 6.85008 6.67585 6.53098C5.29351 5.78271 3.5395 5.78271 2.15716 6.53099Z" stroke="#323B49"/>
  <path d="M6.2915 2.56069C6.2915 3.60668 5.45204 4.45463 4.4165 4.45463C3.38097 4.45463 2.5415 3.60668 2.5415 2.56069C2.5415 1.51469 3.38097 0.666748 4.4165 0.666748C5.45204 0.666748 6.2915 1.51469 6.2915 2.56069Z" stroke="#323B49"/>
  <path d="M2.33301 11.5C2.33301 14.2643 4.56872 16.5 7.33301 16.5L6.61872 15.0714" stroke="#0F1625" stroke-linecap="round" stroke-linejoin="round"/>
  <path d="M15.6665 6.5C15.6665 3.73572 13.4308 1.5 10.6665 1.5L11.3808 2.92857" stroke="#0F1625" stroke-linecap="round" stroke-linejoin="round"/>
  <path d="M11.3237 14.8642C10.7342 15.1833 9.18858 15.8349 10.13 16.6502C10.5898 17.0485 11.102 17.3333 11.7459 17.3333H15.4201C16.0641 17.3333 16.5762 17.0485 17.0361 16.6502C17.9774 15.8349 16.4318 15.1833 15.8424 14.8642C14.46 14.116 12.706 14.116 11.3237 14.8642Z" stroke="#0F1625"/>
  <path d="M15.458 10.8939C15.458 11.9399 14.6185 12.7879 13.583 12.7879C12.5475 12.7879 11.708 11.9399 11.708 10.8939C11.708 9.84795 12.5475 9 13.583 9C14.6185 9 15.458 9.84795 15.458 10.8939Z" stroke="#0F1625"/>
</svg>