<svg width="32" height="32" viewBox="0 0 32 32" fill="none" xmlns="http://www.w3.org/2000/svg">
<circle cx="16" cy="16" r="16" fill="#FBFBFC"/>
<circle cx="16" cy="16" r="15.5" stroke="#D0D6DD" stroke-opacity="0.6"/>
<path d="M16.2049 21.18C13.5409 21.18 11.9029 19.686 11.4529 17.886L13.0729 16.446C13.4329 18.156 14.2609 19.254 16.2949 19.254C17.6989 19.254 18.4909 18.606 18.4909 17.544C18.4909 16.302 17.4829 15.798 15.9889 15.798H14.0809V14.124H16.0609C17.3569 14.124 18.0769 13.602 18.0769 12.504C18.0769 11.496 17.4469 10.704 16.0969 10.704C14.6389 10.704 13.5409 11.532 13.2889 13.098L11.6689 11.712C12.2089 10.074 13.8469 8.76 16.1689 8.76C18.9589 8.76 20.1649 10.416 20.1649 12.054C20.1649 13.53 19.0129 14.646 17.4289 14.808C19.7149 14.952 20.6509 16.266 20.6509 17.886C20.6509 19.902 18.8509 21.18 16.2049 21.18Z" fill="#1F2937"/>
</svg>
