<svg width="32" height="32" viewBox="0 0 32 32" fill="none" xmlns="http://www.w3.org/2000/svg">
<circle cx="16" cy="16" r="16" fill="#FBFBFC"/>
<circle cx="16" cy="16" r="15.5" stroke="#D0D6DD" stroke-opacity="0.6"/>
<path d="M20.6195 21H11.9975V19.452L16.1555 15.492C17.3255 14.358 18.1535 13.44 18.1535 12.306C18.1535 11.442 17.6495 10.704 16.4795 10.704C14.6975 10.704 13.5815 11.838 13.6895 14.16L11.9795 12.936C11.9255 10.524 13.8875 8.76 16.6595 8.76C19.0895 8.76 20.2775 10.2 20.2775 12.18C20.2775 14.124 18.5495 15.798 17.2715 16.86L15.5975 18.336L14.1935 19.38L15.9935 19.2H20.6195V21Z" fill="#1F2937"/>
</svg>
