<svg xmlns="http://www.w3.org/2000/svg" width="20" height="18" viewBox="0 0 20 18" fill="none">
  <path d="M4.8186 2.48494C5.35848 2.06933 5.62841 1.86152 5.93998 1.72769C6.08125 1.66701 6.22814 1.61798 6.3789 1.58117C6.71142 1.5 7.064 1.5 7.76916 1.5H12.231C12.9362 1.5 13.2887 1.5 13.6213 1.58117C13.772 1.61798 13.9189 1.66701 14.0602 1.72769C14.3718 1.86152 14.6417 2.06933 15.1816 2.48494C16.9704 3.86207 17.8649 4.55064 18.1715 5.44232C18.3079 5.83894 18.3589 6.25607 18.3216 6.67051C18.2378 7.60223 17.5317 8.45496 16.1195 10.1604L12.7916 14.1794C11.5106 15.7265 10.87 16.5 10.0001 16.5C9.13012 16.5 8.4896 15.7265 7.20856 14.1794L3.88067 10.1604C2.46848 8.45496 1.76238 7.60223 1.67858 6.67051C1.64131 6.25607 1.69228 5.83894 1.82867 5.44232C2.13528 4.55064 3.02972 3.86207 4.8186 2.48494Z" stroke="#0F1625" stroke-width="1.5"/>
  <path d="M8.3335 6.08337H11.6668" stroke="#0F1625" stroke-width="1.5" stroke-linecap="round" stroke-linejoin="round"/>
</svg>