<svg width="150" height="33" viewBox="0 0 150 33" fill="none" xmlns="http://www.w3.org/2000/svg">
<rect x="0.000976562" width="32.3075" height="32.3075" rx="6.92304" fill="#FBFBFC"/>
<path d="M17.8501 7.44185C16.8391 6.70731 15.47 6.70731 14.459 7.44186L8.39293 11.8491C7.38191 12.5837 6.95886 13.8857 7.34503 15.0742L9.66208 22.2053C10.0483 23.3939 11.1558 24.1985 12.4055 24.1985H19.9036C21.1533 24.1985 22.2608 23.3939 22.647 22.2053L24.9641 15.0742C25.3502 13.8857 24.9272 12.5837 23.9162 11.8491L17.8501 7.44185Z" fill="#FEF0F0" stroke="#EF0000" stroke-width="1.15384"/>
<path d="M67.3784 21.7321C69.1855 21.7321 70.9926 21.7389 72.798 21.7252C73.0976 21.7235 73.192 21.7987 73.1839 22.1215C73.1611 22.9824 73.1692 23.845 73.1806 24.7075C73.1839 24.9655 73.1432 25.0816 72.855 25.0816C69.2131 25.0714 65.5696 25.0731 61.9278 25.0799C61.6754 25.0799 61.6087 24.9962 61.6119 24.7434C61.6233 23.8518 61.6298 22.9585 61.6087 22.0669C61.6022 21.7697 61.7064 21.7252 61.9571 21.727C63.7642 21.7372 65.5713 21.7321 67.3784 21.7321Z" fill="white"/>
<path d="M67.3795 10.8497C65.6017 10.8497 63.8239 10.836 62.0477 10.8599C61.6716 10.8651 61.5967 10.7472 61.6098 10.3834C61.6374 9.55327 61.6293 8.72143 61.613 7.8896C61.6081 7.6146 61.6798 7.5292 61.95 7.5309C65.5772 7.53944 69.2045 7.54115 72.8317 7.52919C73.1361 7.52749 73.1882 7.64193 73.1833 7.92205C73.1687 8.76755 73.1622 9.61476 73.185 10.462C73.1931 10.7865 73.0954 10.8599 72.7991 10.8565C70.992 10.8429 69.1866 10.8497 67.3795 10.8497Z" fill="white"/>
<path d="M88.1079 25.3435C88.1096 21.654 88.1275 17.9663 88.1079 14.2768C88.0965 12.1332 86.4783 10.2902 84.4367 10.022C82.4082 9.75728 80.4188 11.1459 79.8734 13.2161C79.7546 13.6688 79.7008 14.1317 79.7025 14.6031C79.7057 17.9441 79.696 21.2868 79.7155 24.6278C79.7171 25.0411 79.6064 25.1265 79.2385 25.1112C78.5319 25.0804 77.8221 25.0924 77.1139 25.1078C76.8844 25.1129 76.8241 25.0394 76.8241 24.8037C76.8323 21.1604 76.7834 17.5154 76.8453 13.872C76.899 10.6779 79.4697 7.69051 82.5189 7.0961C82.7615 7.04827 83.0318 7.0961 83.2499 6.92529C83.683 6.92529 84.1177 6.92529 84.5507 6.92529C84.8568 7.09781 85.2068 7.06194 85.5324 7.14563C88.8568 8.01163 91.0156 10.9376 91.027 14.6458C91.0367 18.0466 91.0221 21.4491 91.0221 24.8515C91.0221 25.0155 91.0449 25.1795 91.0579 25.3435C90.0746 25.3435 89.0912 25.3435 88.1079 25.3435Z" fill="white"/>
<path d="M46.158 7.57594C46.1987 7.56398 46.2411 7.54177 46.2818 7.54177C48.7824 7.55031 51.2879 7.46832 53.782 7.59472C56.9436 7.75357 59.1919 10.3413 58.7817 14.0547C58.4447 17.1087 56.1882 18.9654 53.3132 19.0081C52.0694 19.0269 50.8272 19.0235 49.5834 19.0064C49.2855 19.003 49.1927 19.0781 49.1959 19.4026C49.2122 21.1568 49.1927 22.911 49.2122 24.6652C49.2155 25.0154 49.1178 25.0905 48.8003 25.0837C47.9196 25.0649 47.0372 25.0837 46.1564 25.0888C46.1564 22.1544 46.1564 19.2216 46.1564 16.2871C47.6151 16.2871 49.0738 16.3042 50.5325 16.2837C51.441 16.2717 52.351 16.3589 53.2578 16.2068C54.8826 15.9353 55.6917 14.8045 55.6103 12.8983C55.5484 11.4464 54.526 10.3481 53.0429 10.314C50.7474 10.2593 48.4503 10.2986 46.1548 10.2986C46.158 9.38991 46.158 8.48292 46.158 7.57594Z" fill="white"/>
<path d="M149.999 25.3637C148.974 25.3671 147.946 25.3586 146.921 25.3842C146.649 25.3911 146.588 25.2305 146.501 25.0375C145.623 23.0903 144.734 21.1499 143.866 19.1976C143.748 18.9294 143.625 18.8167 143.328 18.8235C142.359 18.8474 141.39 18.8218 140.422 18.8389C140.161 18.844 140.073 18.7825 140.083 18.4938C140.106 17.814 140.104 17.1325 140.083 16.4527C140.073 16.1606 140.169 16.1042 140.428 16.1077C141.483 16.123 142.538 16.1094 143.595 16.1162C143.943 16.1179 144.288 16.0855 144.627 16.0052C145.976 15.6841 146.68 14.637 146.619 13.0502C146.572 11.7897 145.719 10.8553 144.42 10.6674C143.126 10.4813 141.822 10.6042 140.523 10.594C140.151 10.5906 140.067 10.4864 140.083 10.1174C140.117 9.36419 140.106 8.60751 140.112 7.85254C141.644 7.85254 143.178 7.85254 144.71 7.85254C145.087 8.03189 145.506 8.01822 145.901 8.12071C148.176 8.70829 149.576 10.3207 149.815 12.6574C150.068 15.1221 149.092 16.9856 146.953 18.0583C146.663 18.2035 146.746 18.323 146.841 18.5246C147.713 20.4052 148.578 22.2892 149.451 24.1698C149.623 24.5421 149.752 24.9401 150.001 25.2715C149.999 25.3022 149.999 25.333 149.999 25.3637Z" fill="#EF0000"/>
<path d="M100.834 17.6532C100.834 20.0684 100.828 22.4854 100.842 24.9006C100.844 25.2661 100.771 25.3976 100.404 25.3823C99.6472 25.3498 98.8853 25.3498 98.1283 25.3823C97.7506 25.3976 97.6643 25.2678 97.6659 24.8801C97.6789 20.0958 97.6676 15.3115 97.6838 10.5288C97.6855 10.0557 97.6057 9.89002 97.1205 9.90198C95.6781 9.94127 94.2341 9.9071 92.79 9.92419C92.4888 9.9276 92.4123 9.82853 92.4188 9.52279C92.4367 8.77636 92.4335 8.02822 92.4188 7.28179C92.4139 7.02217 92.4726 6.9231 92.7363 6.9231C96.948 6.93164 101.16 6.93164 105.371 6.9231C105.627 6.9231 105.699 7.00167 105.692 7.27154C105.676 8.03335 105.673 8.79685 105.694 9.56036C105.702 9.86953 105.602 9.92418 105.339 9.92248C103.984 9.90881 102.63 9.93443 101.277 9.90539C100.888 9.89685 100.823 10.0267 100.826 10.4076C100.842 12.8228 100.834 15.238 100.834 17.6532Z" fill="white"/>
<path d="M67.3765 14.391C69.1819 14.391 70.9874 14.3978 72.7912 14.3842C73.0843 14.3825 73.195 14.4508 73.1868 14.7822C73.1657 15.6584 73.1706 16.5346 73.1852 17.4109C73.1885 17.6705 73.1087 17.7422 72.8645 17.7422C69.2112 17.7354 65.558 17.7354 61.9031 17.7422C61.6442 17.7422 61.5889 17.6432 61.5921 17.3989C61.6019 16.5381 61.61 15.6772 61.5889 14.8163C61.5807 14.4798 61.6751 14.3808 62.0024 14.3825C63.7964 14.3995 65.5873 14.391 67.3765 14.391Z" fill="white"/>
<path d="M113.603 13.0113L120.705 25.2804C120.728 25.3197 120.768 25.3436 120.812 25.3436H123.575C123.673 25.3436 123.733 25.2309 123.682 25.1438L113.603 7.72824C113.555 7.64283 113.437 7.64283 113.388 7.72824L103.342 25.1438C103.292 25.2326 103.352 25.3436 103.449 25.3436H106.202C106.246 25.3436 106.287 25.3197 106.31 25.2804L113.387 13.0113C113.437 12.9259 113.555 12.9259 113.603 13.0113Z" fill="white"/>
<path d="M131.107 8.20159V14.8836C131.107 15.0766 130.957 15.2337 130.773 15.2337H122.518C122.259 15.2337 122.098 15.5292 122.231 15.7632L123.465 17.941C123.525 18.0469 123.634 18.1118 123.752 18.1118H130.772C130.956 18.1118 131.105 18.269 131.105 18.462V25.0296C131.105 25.2226 131.255 25.3797 131.439 25.3797H134.187C134.371 25.3797 134.521 25.2226 134.521 25.0296V8.19818C134.521 8.00516 134.371 7.84802 134.187 7.84802H131.439C131.257 7.85144 131.107 8.00687 131.107 8.20159Z" fill="#EF0000"/>
</svg>
