<svg width="350" height="77" viewBox="0 0 350 77" fill="none" xmlns="http://www.w3.org/2000/svg">
<rect y="0.807861" width="75.3842" height="75.3842" rx="16.1538" fill="#FEF0F0"/>
<path d="M41.6479 18.172C39.2889 16.4581 36.0945 16.4581 33.7354 18.172L19.5812 28.4557C17.2222 30.1696 16.2351 33.2077 17.1361 35.9809L22.5426 52.6202C23.4436 55.3934 26.0279 57.271 28.9439 57.271H46.4395C49.3554 57.271 51.9397 55.3934 52.8408 52.6202L58.2472 35.9809C59.1483 33.2077 58.1612 30.1696 55.8021 28.4557L41.6479 18.172Z" fill="#FEF0F0" stroke="#EF0000" stroke-width="2.69229"/>
<path d="M157.214 51.5163C161.431 51.5163 165.647 51.5322 169.86 51.5003C170.559 51.4963 170.779 51.6717 170.76 52.425C170.707 54.4336 170.726 56.4463 170.753 58.459C170.76 59.0608 170.665 59.3318 169.993 59.3318C161.495 59.3079 152.994 59.3119 144.496 59.3278C143.907 59.3278 143.752 59.1326 143.759 58.5427C143.786 56.4623 143.801 54.3778 143.752 52.2974C143.736 51.6039 143.98 51.5003 144.565 51.5043C148.781 51.5282 152.998 51.5163 157.214 51.5163Z" fill="#0F1625"/>
<path d="M157.217 26.124C153.069 26.124 148.92 26.0921 144.776 26.1479C143.899 26.1599 143.724 25.8849 143.754 25.036C143.819 23.099 143.8 21.1581 143.762 19.2172C143.75 18.5755 143.918 18.3762 144.548 18.3802C153.012 18.4001 161.475 18.4041 169.939 18.3762C170.649 18.3722 170.771 18.6393 170.759 19.2929C170.725 21.2657 170.71 23.2425 170.763 25.2193C170.782 25.9766 170.554 26.1479 169.863 26.14C165.646 26.1081 161.433 26.124 157.217 26.124Z" fill="#0F1625"/>
<path d="M205.583 59.943C205.587 51.3343 205.629 42.7296 205.583 34.1209C205.557 29.1191 201.781 24.8187 197.017 24.193C192.284 23.5753 187.642 26.8155 186.369 31.6459C186.092 32.7021 185.967 33.7821 185.97 34.8821C185.978 42.6778 185.955 50.4774 186.001 58.2731C186.005 59.2376 185.746 59.4369 184.888 59.401C183.239 59.3293 181.583 59.3572 179.931 59.393C179.395 59.405 179.254 59.2336 179.254 58.6836C179.273 50.1825 179.159 41.6774 179.304 33.1763C179.429 25.7234 185.427 18.7528 192.542 17.3658C193.108 17.2542 193.739 17.3658 194.248 16.9673C195.258 16.9673 196.273 16.9673 197.283 16.9673C197.997 17.3698 198.814 17.2861 199.574 17.4814C207.331 19.5021 212.368 26.3292 212.394 34.9818C212.417 42.9169 212.383 50.8561 212.383 58.7952C212.383 59.1778 212.436 59.5604 212.466 59.943C210.172 59.943 207.878 59.943 205.583 59.943Z" fill="#0F1625"/>
<path d="M107.699 18.4852C107.794 18.4573 107.893 18.4055 107.988 18.4055C113.823 18.4254 119.669 18.2341 125.488 18.529C132.865 18.8997 138.111 24.9377 137.154 33.6022C136.368 40.7283 131.103 45.0605 124.394 45.1602C121.492 45.204 118.594 45.196 115.691 45.1562C114.996 45.1482 114.78 45.3236 114.787 46.0808C114.825 50.1739 114.78 54.2671 114.825 58.3602C114.833 59.1772 114.605 59.3526 113.864 59.3366C111.809 59.2928 109.75 59.3366 107.695 59.3486C107.695 52.5015 107.695 45.6584 107.695 38.8113C111.099 38.8113 114.502 38.8511 117.906 38.8033C120.026 38.7754 122.149 38.9787 124.265 38.6239C128.056 37.9902 129.944 35.3518 129.754 30.904C129.61 27.5163 127.224 24.9536 123.764 24.8739C118.408 24.7464 113.048 24.8381 107.691 24.8381C107.699 22.7178 107.699 20.6015 107.699 18.4852Z" fill="#0F1625"/>
<path d="M349.996 59.99C347.603 59.998 345.206 59.9781 342.812 60.0379C342.178 60.0538 342.038 59.6792 341.832 59.2288C339.785 54.6853 337.711 50.1578 335.686 45.6024C335.409 44.9766 335.124 44.7136 334.429 44.7295C332.168 44.7853 329.908 44.7256 327.648 44.7654C327.04 44.7774 326.835 44.6339 326.858 43.9603C326.911 42.3741 326.907 40.7839 326.858 39.1977C326.835 38.5161 327.059 38.3846 327.663 38.3926C330.125 38.4284 332.586 38.3966 335.052 38.4125C335.865 38.4165 336.67 38.3408 337.46 38.1535C340.609 37.4042 342.25 34.9611 342.11 31.2585C342 28.3172 340.009 26.1371 336.978 25.6987C333.958 25.2643 330.915 25.5513 327.884 25.5274C327.017 25.5194 326.82 25.2763 326.858 24.4154C326.938 22.6578 326.911 20.8922 326.926 19.1306C330.501 19.1306 334.079 19.1306 337.654 19.1306C338.535 19.5491 339.511 19.5172 340.434 19.7563C345.741 21.1274 349.008 24.8897 349.567 30.3419C350.155 36.0929 347.88 40.4411 342.888 42.944C342.212 43.2828 342.406 43.5618 342.626 44.0321C344.662 48.4201 346.68 52.8161 348.716 57.2042C349.118 58.073 349.418 59.0017 350 59.7748C349.996 59.8466 349.996 59.9183 349.996 59.99Z" fill="#EF0000"/>
<path d="M235.277 41.9986C235.277 47.6341 235.262 53.2736 235.296 58.9092C235.3 59.7621 235.129 60.0689 234.274 60.0331C232.508 59.9573 230.73 59.9573 228.964 60.0331C228.082 60.0689 227.881 59.766 227.885 58.8613C227.915 47.6979 227.889 36.5345 227.927 25.3751C227.93 24.2711 227.744 23.8845 226.612 23.9124C223.247 24.0041 219.877 23.9244 216.508 23.9642C215.805 23.9722 215.626 23.741 215.641 23.0276C215.683 21.2859 215.676 19.5403 215.641 17.7986C215.63 17.1928 215.767 16.9617 216.382 16.9617C226.209 16.9816 236.037 16.9816 245.864 16.9617C246.46 16.9617 246.628 17.145 246.612 17.7747C246.574 19.5523 246.567 21.3338 246.616 23.1153C246.635 23.8367 246.403 23.9642 245.788 23.9602C242.627 23.9283 239.467 23.9881 236.31 23.9204C235.402 23.9004 235.25 24.2033 235.258 25.0921C235.296 30.7276 235.277 36.3631 235.277 41.9986Z" fill="#0F1625"/>
<path d="M157.209 34.3872C161.421 34.3872 165.634 34.4032 169.843 34.3713C170.527 34.3673 170.785 34.5267 170.766 35.2999C170.717 37.3445 170.728 39.389 170.762 41.4336C170.77 42.0394 170.584 42.2068 170.014 42.2068C161.49 42.1908 152.965 42.1908 144.437 42.2068C143.833 42.2068 143.704 41.9756 143.712 41.4057C143.735 39.397 143.754 37.3883 143.704 35.3796C143.685 34.5945 143.906 34.3633 144.669 34.3673C148.855 34.4072 153.034 34.3872 157.209 34.3872Z" fill="#0F1625"/>
<path d="M265.072 31.168L281.642 59.7959C281.695 59.8876 281.79 59.9434 281.892 59.9434H288.339C288.567 59.9434 288.707 59.6803 288.59 59.4771L265.072 18.8408C264.958 18.6415 264.684 18.6415 264.57 18.8408L241.128 59.4771C241.011 59.6843 241.151 59.9434 241.379 59.9434H247.803C247.905 59.9434 248 59.8876 248.054 59.7959L264.567 31.168C264.684 30.9687 264.958 30.9687 265.072 31.168Z" fill="#0F1625"/>
<path d="M305.914 19.9449V35.5362C305.914 35.9866 305.565 36.3533 305.136 36.3533H285.872C285.268 36.3533 284.892 37.0428 285.204 37.5888L288.083 42.6703C288.224 42.9174 288.478 43.0689 288.752 43.0689H305.132C305.561 43.0689 305.91 43.4355 305.91 43.8859V59.2102C305.91 59.6605 306.26 60.0272 306.689 60.0272H313.101C313.531 60.0272 313.88 59.6605 313.88 59.2102V19.937C313.88 19.4866 313.531 19.1199 313.101 19.1199H306.689C306.264 19.1279 305.914 19.4906 305.914 19.9449Z" fill="#EF0000"/>
</svg>
