<svg width="20" height="21" viewBox="0 0 20 21" fill="none" xmlns="http://www.w3.org/2000/svg">
<path fill-rule="evenodd" clip-rule="evenodd" d="M7.30125 7.10005C7.46685 6.92233 7.557 6.68728 7.55272 6.4444C7.54843 6.20152 7.45004 5.96979 7.27828 5.79802C7.10651 5.62626 6.87478 5.52787 6.6319 5.52358C6.38903 5.5193 6.15397 5.60945 5.97625 5.77505L1.9125 9.83755L1.25 10.5001L1.9125 11.1626L5.975 15.2251C6.15173 15.3959 6.3885 15.4905 6.63432 15.4885C6.88013 15.4865 7.11531 15.388 7.28921 15.2143C7.46312 15.0405 7.56182 14.8054 7.56407 14.5596C7.56633 14.3138 7.47194 14.0769 7.30125 13.9001L4.83875 11.4376H17.8125C18.0611 11.4376 18.2996 11.3388 18.4754 11.163C18.6512 10.9871 18.75 10.7487 18.75 10.5001C18.75 10.2514 18.6512 10.013 18.4754 9.83714C18.2996 9.66132 18.0611 9.56255 17.8125 9.56255H4.83875L7.30125 7.10005Z" fill="#131313"/>
</svg>
