<svg width="88" height="76" viewBox="0 0 88 76" fill="none" xmlns="http://www.w3.org/2000/svg">
<rect x="0.569702" width="87" height="76" rx="8" fill="#FFD1D1"/>
<path fill-rule="evenodd" clip-rule="evenodd" d="M41.6101 18.5528C43.1585 17.7786 44.981 17.7786 46.5294 18.5528L61.1628 25.8695C63.7425 27.1594 63.7425 30.8407 61.1628 32.1305L46.5294 39.4472C44.981 40.2214 43.1585 40.2214 41.6101 39.4472L26.9766 32.1305C24.3969 30.8407 24.397 27.1594 26.9766 25.8695L41.6101 18.5528ZM24.6989 48.3907C25.0353 47.6337 25.9218 47.2927 26.6788 47.6292L43.0542 54.9071C43.7007 55.1944 44.4385 55.1944 45.0849 54.9071L61.4604 47.6292C62.2174 47.2927 63.1038 47.6337 63.4403 48.3907C63.7768 49.1477 63.4358 50.0341 62.6788 50.3706L46.3033 57.6486C44.8812 58.2806 43.2579 58.2806 41.8358 57.6486L25.4604 50.3706C24.7034 50.0341 24.3624 49.1477 24.6989 48.3907ZM26.6788 38.6292C25.9218 38.2927 25.0353 38.6337 24.6989 39.3907C24.3624 40.1477 24.7034 41.0341 25.4604 41.3706L41.8358 48.6486C43.2579 49.2806 44.8812 49.2806 46.3033 48.6486L62.6788 41.3706C63.4358 41.0341 63.7768 40.1477 63.4403 39.3907C63.1038 38.6337 62.2174 38.2927 61.4604 38.6292L45.0849 45.9071C44.4385 46.1944 43.7007 46.1944 43.0542 45.9071L26.6788 38.6292Z" fill="#C66961"/>
</svg>
