<svg width="314" height="70" viewBox="0 0 314 70" fill="none" xmlns="http://www.w3.org/2000/svg">
<path d="M71.2888 37.8756C68.2613 37.8756 65.6839 39.8803 64.7429 42.6623H77.8757C76.9347 39.8803 74.3572 37.8756 71.2888 37.8756ZM84.4625 43.8897C84.4625 45.6898 82.9897 47.1627 81.2305 47.1627H64.702C65.4384 49.5356 67.4431 51.4175 69.8978 51.9085C71.9843 52.3176 75.9119 51.7857 77.3438 50.6402C78.653 49.6174 80.8213 49.9856 81.8441 51.6221C82.7442 53.0949 82.1714 54.9769 80.7804 55.9587C78.5712 57.5134 74.5618 58.3726 71.2888 58.3726C63.8019 58.3726 57.7878 52.0312 58.1151 44.2988C58.4424 37.5483 63.8428 31.9843 70.4706 31.5342C77.7529 31.0842 83.8897 36.6892 84.4625 43.8897ZM105.252 32.3934C107.584 33.4571 107.748 36.7301 105.538 38.0802L105.252 38.2438C104.352 38.8166 103.247 38.7757 102.265 38.3666C101.611 38.0393 100.874 37.8756 100.138 37.8756C99.0333 37.8756 97.8877 38.2438 96.8649 38.8575C94.6148 40.2485 93.3465 42.7851 93.3465 45.4034V54.9769C93.3465 56.8997 91.71 58.4953 89.7462 58.3726C87.9052 58.2907 86.5142 56.6133 86.5142 54.7723V34.8481C86.5142 32.8843 88.1507 31.3297 90.1144 31.4115C91.9555 31.4933 93.3465 33.1707 93.3465 35.0527V35.3391C95.3921 32.9662 98.1741 31.5342 101.243 31.5342C102.634 31.5342 104.025 31.8615 105.252 32.3934ZM128.504 50.4356C129.076 49.9856 129.813 49.6992 130.549 49.6992C133.495 49.6992 134.886 53.3813 132.636 55.2632C130.304 57.227 127.317 58.3726 124.044 58.3726C116.107 58.3726 109.807 51.5402 110.707 43.4397C111.362 37.3438 116.23 32.3934 122.285 31.657C126.417 31.1251 130.222 32.4752 133.004 34.9709C135.131 36.8937 133.781 40.494 130.877 40.494C130.836 40.494 130.795 40.494 130.754 40.494C130.017 40.494 129.322 40.2076 128.749 39.6757C127.481 38.5711 125.844 37.8756 124.044 37.8756C119.667 37.8756 116.23 41.8441 117.089 46.3853C117.621 49.1673 119.953 51.4175 122.735 51.9085C124.944 52.3176 126.99 51.7039 128.504 50.4356ZM151.943 31.5342C158.162 31.5342 163.235 37.5483 163.235 44.9534C163.235 45.4853 163.235 51.2539 163.235 55.0587C163.235 56.8997 161.803 58.3726 160.003 58.3726C158.244 58.3726 156.771 56.8997 156.771 55.0587C156.812 51.0902 156.812 45.0761 156.812 44.9534C156.812 41.0668 154.111 37.8756 150.838 37.8756C147.893 37.8756 144.702 40.4122 144.047 43.767V54.9769C144.047 56.8588 142.533 58.3726 140.61 58.3726C138.729 58.3726 137.215 56.8588 137.215 54.9769V26.3384C137.215 24.4565 138.729 22.9018 140.61 22.9018C142.533 22.9018 144.047 24.4565 144.047 26.3384V35.3391C146.093 32.9662 148.875 31.5342 151.943 31.5342ZM178.272 36.5664C186.454 39.3485 189.441 43.2351 189.441 48.2673C189.441 55.1814 182.281 58.5362 177.045 58.5362C172.462 58.5362 168.617 56.5724 165.835 53.3404C165.426 52.8085 165.262 52.1948 165.262 51.5402C165.262 49.8219 166.653 48.3491 168.371 48.3491C169.394 48.3491 170.335 48.7991 170.908 49.6583C172.503 51.4993 174.672 52.604 177.045 52.604C179.54 52.604 182.527 51.4175 182.527 48.2673C182.527 45.608 180.768 43.9715 176.595 42.6623L175.04 42.1305C169.394 40.3303 165.385 37.3847 165.385 31.9025C165.385 26.1748 170.785 22.4927 176.963 22.4927C181.095 22.4927 184.163 24.0064 186.495 26.3793C186.945 26.9521 187.109 27.6067 187.109 28.3431C187.109 30.0205 185.841 31.2888 184.245 31.2888C183.222 31.2888 182.363 30.9206 181.79 30.1023C180.645 28.9159 178.927 28.384 176.963 28.384C174.385 28.384 172.299 29.775 172.299 31.9025C172.299 33.9071 173.362 34.8072 176.717 36.0755L178.272 36.5664ZM208.041 52.6858C209.759 54.7723 208.531 57.9634 205.831 58.2907C203.704 58.5771 201.454 58.168 199.408 56.9815C196.34 55.1405 194.621 51.7039 194.621 48.1445V40.5758H194.335C192.739 40.5758 191.471 39.3075 191.471 37.712C191.471 36.1164 192.739 34.8481 194.335 34.8481H194.621V30.4705C194.621 28.5886 196.135 27.0339 198.058 27.0339C199.94 27.0339 201.454 28.5886 201.454 30.4705C201.454 30.4705 201.454 32.3116 201.454 34.8481H204.031C205.627 34.8481 206.936 36.1164 206.936 37.712C206.936 39.3075 205.627 40.5758 204.031 40.5758H201.454C201.454 44.0533 201.454 47.2854 201.454 48.1445C201.454 50.1492 202.927 51.5812 204.645 51.4993C204.768 51.4993 204.89 51.4993 205.013 51.4993C206.159 51.2948 207.304 51.8266 208.041 52.6858ZM224.98 31.5342C232.262 31.5342 238.154 37.5483 238.154 44.9534C238.154 52.3994 232.262 58.4135 224.98 58.4135C217.739 58.4135 211.847 52.3994 211.847 44.9534C211.847 37.5483 217.739 31.5342 224.98 31.5342ZM224.98 38.4075C221.543 38.4075 218.721 41.3531 218.721 44.9534C218.721 48.5946 221.543 51.4993 224.98 51.4993C228.458 51.4993 231.281 48.5946 231.281 44.9534C231.281 41.3531 228.458 38.4075 224.98 38.4075ZM258.992 32.3934C261.324 33.4571 261.487 36.7301 259.278 38.0802L258.992 38.2438C258.092 38.8166 256.987 38.7757 256.005 38.3666C255.351 38.0393 254.614 37.8756 253.878 37.8756C252.773 37.8756 251.628 38.2438 250.605 38.8575C248.355 40.2485 247.086 42.7851 247.086 45.4034V54.9769C247.086 56.8997 245.45 58.4953 243.486 58.3726C241.645 58.2907 240.254 56.6133 240.254 54.7723V34.8481C240.254 32.8843 241.89 31.3297 243.854 31.4115C245.695 31.4933 247.086 33.1707 247.086 35.0527V35.3391C249.132 32.9662 251.914 31.5342 254.982 31.5342C256.373 31.5342 257.764 31.8615 258.992 32.3934ZM277.048 37.8756C274.02 37.8756 271.443 39.8803 270.502 42.6623H283.635C282.694 39.8803 280.116 37.8756 277.048 37.8756ZM290.221 43.8897C290.221 45.6898 288.749 47.1627 286.989 47.1627H270.461C271.197 49.5356 273.202 51.4175 275.657 51.9085C277.743 52.3176 281.671 51.7857 283.103 50.6402C284.412 49.6174 286.58 49.9856 287.603 51.6221C288.503 53.0949 287.93 54.9769 286.539 55.9587C284.33 57.5134 280.321 58.3726 277.048 58.3726C269.561 58.3726 263.547 52.0312 263.874 44.2988C264.201 37.5483 269.602 31.9843 276.229 31.5342C283.512 31.0842 289.649 36.6892 290.221 43.8897Z" fill="white"/>
<rect y="18.7241" width="50.9467" height="50.9468" rx="9.01712" fill="white"/>
<path d="M13.8876 13.5703C13.8876 7.09628 19.1358 1.84805 25.6099 1.84805C32.0839 1.84805 37.3321 7.09628 37.3321 13.5703" stroke="white" stroke-width="3.60685" stroke-linecap="round"/>
<path d="M39.583 26.2768C41.4649 26.2768 43.0196 27.7906 43.0196 29.7135V58.5564C43.0196 60.4384 41.4649 61.9521 39.583 61.9521C37.6601 61.9521 36.1464 60.4384 36.1464 58.5564V43.0508L28.3322 57.1654C27.7185 58.311 26.532 58.9247 25.3456 58.9247C24.1182 58.9247 22.9318 58.311 22.3181 57.1654L14.5039 43.0508V58.5564C14.5039 60.4384 12.9901 61.9521 11.0673 61.9521C9.18532 61.9521 7.67157 60.4384 7.67157 58.5564V29.7135C7.67157 27.7906 9.18532 26.2768 11.0673 26.2768C12.3765 26.2768 13.4811 27.0133 14.0948 28.0361L25.3456 48.4103L36.5555 28.0361H36.5964C37.1692 27.0133 38.2738 26.2768 39.583 26.2768Z" fill="#F88379"/>
</svg>
