<svg width="220" height="50" viewBox="0 0 220 50" fill="none" xmlns="http://www.w3.org/2000/svg">
<path d="M49.9479 27.1212C47.8267 27.1212 46.0208 28.5258 45.3616 30.4749H54.5629C53.9036 28.5258 52.0977 27.1212 49.9479 27.1212ZM59.1778 31.3349C59.1778 32.5961 58.1459 33.628 56.9133 33.628H45.3329C45.8488 35.2906 47.2534 36.6092 48.9733 36.9531C50.4352 37.2398 53.187 36.8671 54.1902 36.0645C55.1075 35.3479 56.6267 35.6059 57.3433 36.7525C57.9739 37.7844 57.5726 39.103 56.598 39.7909C55.0502 40.8802 52.241 41.4821 49.9479 41.4821C44.7023 41.4821 40.4886 37.0391 40.7179 31.6215C40.9472 26.8919 44.7309 22.9935 49.3746 22.6782C54.4769 22.3629 58.7765 26.2899 59.1778 31.3349ZM73.7437 23.2802C75.3775 24.0254 75.4922 26.3186 73.9443 27.2645L73.7437 27.3792C73.113 27.7805 72.3391 27.7518 71.6512 27.4652C71.1925 27.2359 70.6766 27.1212 70.1606 27.1212C69.3867 27.1212 68.5841 27.3792 67.8674 27.8091C66.2909 28.7837 65.4023 30.5609 65.4023 32.3955V39.103C65.4023 40.4502 64.2557 41.5681 62.8798 41.4821C61.5899 41.4248 60.6153 40.2495 60.6153 38.9596V25C60.6153 23.6241 61.7619 22.5349 63.1378 22.5922C64.4277 22.6495 65.4023 23.8248 65.4023 25.1434V25.344C66.8355 23.6815 68.7847 22.6782 70.9345 22.6782C71.9091 22.6782 72.8837 22.9075 73.7437 23.2802ZM90.0347 35.9212C90.436 35.6059 90.952 35.4052 91.4679 35.4052C93.5318 35.4052 94.5064 37.985 92.9298 39.3036C91.296 40.6795 89.2034 41.4821 86.9103 41.4821C81.3494 41.4821 76.935 36.6951 77.5657 31.0196C78.0243 26.7486 81.4354 23.2802 85.6777 22.7642C88.5728 22.3916 91.2386 23.3375 93.1878 25.086C94.6784 26.4333 93.7324 28.9557 91.6973 28.9557C91.6686 28.9557 91.6399 28.9557 91.6113 28.9557C91.0953 28.9557 90.608 28.7551 90.2067 28.3824C89.3181 27.6085 88.1715 27.1212 86.9103 27.1212C83.8432 27.1212 81.4354 29.9017 82.0373 33.0834C82.41 35.0326 84.0438 36.6092 85.993 36.9531C87.5409 37.2398 88.9741 36.8098 90.0347 35.9212ZM106.457 22.6782C110.814 22.6782 114.369 26.8919 114.369 32.0802C114.369 32.4528 114.369 36.4945 114.369 39.1603C114.369 40.4502 113.365 41.4821 112.104 41.4821C110.872 41.4821 109.84 40.4502 109.84 39.1603C109.868 36.3798 109.868 32.1662 109.868 32.0802C109.868 29.357 107.976 27.1212 105.683 27.1212C103.619 27.1212 101.384 28.8984 100.925 31.2489V39.103C100.925 40.4215 99.8644 41.4821 98.5172 41.4821C97.1986 41.4821 96.138 40.4215 96.138 39.103V19.0378C96.138 17.7192 97.1986 16.63 98.5172 16.63C99.8644 16.63 100.925 17.7192 100.925 19.0378V25.344C102.358 23.6815 104.307 22.6782 106.457 22.6782ZM124.904 26.2039C130.637 28.1531 132.73 30.8763 132.73 34.402C132.73 39.2463 127.713 41.5968 124.044 41.5968C120.834 41.5968 118.139 40.2209 116.19 37.9564C115.904 37.5837 115.789 37.1538 115.789 36.6951C115.789 35.4912 116.763 34.4593 117.967 34.4593C118.684 34.4593 119.343 34.7746 119.745 35.3766C120.863 36.6665 122.382 37.4404 124.044 37.4404C125.793 37.4404 127.885 36.6092 127.885 34.402C127.885 32.5388 126.653 31.3922 123.729 30.4749L122.64 30.1023C118.684 28.8411 115.875 26.7772 115.875 22.9362C115.875 18.9232 119.659 16.3433 123.987 16.3433C126.882 16.3433 129.032 17.4039 130.666 19.0665C130.981 19.4678 131.096 19.9264 131.096 20.4424C131.096 21.6176 130.207 22.5062 129.089 22.5062C128.373 22.5062 127.771 22.2482 127.369 21.6749C126.567 20.8437 125.363 20.471 123.987 20.471C122.181 20.471 120.719 21.4456 120.719 22.9362C120.719 24.3407 121.464 24.9714 123.815 25.86L124.904 26.2039ZM145.761 37.4978C146.965 38.9596 146.105 41.1955 144.213 41.4248C142.723 41.6254 141.146 41.3388 139.713 40.5075C137.563 39.2176 136.359 36.8098 136.359 34.316V29.0131H136.159C135.041 29.0131 134.152 28.1245 134.152 27.0065C134.152 25.8886 135.041 25 136.159 25H136.359V21.9329C136.359 20.6144 137.42 19.5251 138.767 19.5251C140.086 19.5251 141.146 20.6144 141.146 21.9329C141.146 21.9329 141.146 23.2228 141.146 25H142.952C144.07 25 144.987 25.8886 144.987 27.0065C144.987 28.1245 144.07 29.0131 142.952 29.0131H141.146C141.146 31.4495 141.146 33.714 141.146 34.316C141.146 35.7206 142.178 36.7238 143.382 36.6665C143.468 36.6665 143.554 36.6665 143.64 36.6665C144.443 36.5232 145.245 36.8958 145.761 37.4978ZM157.63 22.6782C162.732 22.6782 166.86 26.8919 166.86 32.0802C166.86 37.2971 162.732 41.5108 157.63 41.5108C152.556 41.5108 148.428 37.2971 148.428 32.0802C148.428 26.8919 152.556 22.6782 157.63 22.6782ZM157.63 27.4938C155.222 27.4938 153.244 29.5577 153.244 32.0802C153.244 34.6313 155.222 36.6665 157.63 36.6665C160.066 36.6665 162.044 34.6313 162.044 32.0802C162.044 29.5577 160.066 27.4938 157.63 27.4938ZM181.459 23.2802C183.093 24.0254 183.208 26.3186 181.66 27.2645L181.459 27.3792C180.829 27.7805 180.055 27.7518 179.367 27.4652C178.908 27.2359 178.392 27.1212 177.876 27.1212C177.102 27.1212 176.3 27.3792 175.583 27.8091C174.007 28.7837 173.118 30.5609 173.118 32.3955V39.103C173.118 40.4502 171.971 41.5681 170.596 41.4821C169.306 41.4248 168.331 40.2495 168.331 38.9596V25C168.331 23.6241 169.478 22.5349 170.854 22.5922C172.143 22.6495 173.118 23.8248 173.118 25.1434V25.344C174.551 23.6815 176.5 22.6782 178.65 22.6782C179.625 22.6782 180.6 22.9075 181.459 23.2802ZM194.11 27.1212C191.989 27.1212 190.183 28.5258 189.524 30.4749H198.725C198.066 28.5258 196.26 27.1212 194.11 27.1212ZM203.34 31.3349C203.34 32.5961 202.308 33.628 201.076 33.628H189.495C190.011 35.2906 191.416 36.6092 193.136 36.9531C194.597 37.2398 197.349 36.8671 198.352 36.0645C199.27 35.3479 200.789 35.6059 201.506 36.7525C202.136 37.7844 201.735 39.103 200.76 39.7909C199.212 40.8802 196.403 41.4821 194.11 41.4821C188.865 41.4821 184.651 37.0391 184.88 31.6215C185.109 26.8919 188.893 22.9935 193.537 22.6782C198.639 22.3629 202.939 26.2899 203.34 31.3349Z" fill="#F88379"/>
<rect y="13.8241" width="35.6951" height="35.6952" rx="6.31773" fill="#F88379"/>
<path d="M9.7303 10.213C9.7303 5.6771 13.4074 1.99999 17.9433 1.99999C22.4793 1.99999 26.1564 5.6771 26.1564 10.213" stroke="#F88379" stroke-width="2.52709" stroke-linecap="round"/>
<path d="M27.7329 18.9948C29.0515 18.9948 30.1408 20.0554 30.1408 21.4026V41.6111C30.1408 42.9297 29.0515 43.9903 27.7329 43.9903C26.3857 43.9903 25.3251 42.9297 25.3251 41.6111V30.7473L19.8502 40.6365C19.4202 41.4391 18.589 41.8691 17.7577 41.8691C16.8978 41.8691 16.0665 41.4391 15.6365 40.6365L10.1616 30.7473V41.6111C10.1616 42.9297 9.10102 43.9903 7.75379 43.9903C6.43522 43.9903 5.37463 42.9297 5.37463 41.6111V21.4026C5.37463 20.0554 6.43522 18.9948 7.75379 18.9948C8.67105 18.9948 9.44499 19.5108 9.87496 20.2274L17.7577 34.5023L25.6118 20.2274H25.6404C26.0417 19.5108 26.8157 18.9948 27.7329 18.9948Z" fill="white"/>
</svg>
