<svg width="20" height="21" viewBox="0 0 20 21" fill="none" xmlns="http://www.w3.org/2000/svg">
<path d="M11.1825 3.26346C11.9348 2.51114 13.1545 2.51114 13.9068 3.26346L15.269 4.62564C16.0213 5.37796 16.0213 6.5977 15.269 7.35002L8.38328 14.2357C8.08855 14.5305 7.70617 14.7217 7.29353 14.7806L4.43294 15.1893C3.79725 15.2801 3.25238 14.7352 3.34319 14.0995L3.75185 11.2389C3.81079 10.8263 4.00198 10.4439 4.29672 10.1492L11.1825 3.26346Z" fill="#F88379"/>
<path d="M7.29353 17.6992H15.8333M9.82026 4.62565C9.82026 4.62565 9.82026 5.98783 11.1824 7.35002C12.5446 8.71221 13.9068 8.71221 13.9068 8.71221M4.43294 15.1893L7.29353 14.7806C7.70617 14.7217 8.08855 14.5305 8.38328 14.2357L15.269 7.35002C16.0213 6.5977 16.0213 5.37796 15.269 4.62564L13.9068 3.26346C13.1545 2.51114 11.9348 2.51114 11.1825 3.26346L4.29672 10.1492C4.00198 10.4439 3.81079 10.8263 3.75185 11.2389L3.34319 14.0995C3.25238 14.7352 3.79725 15.2801 4.43294 15.1893Z" stroke="#F88379" stroke-width="1.5" stroke-linecap="round"/>
</svg>
