<svg width="18" height="18" viewBox="0 0 18 18" fill="none" xmlns="http://www.w3.org/2000/svg">
<g id="Huge-icon">
<path id="Vector" d="M12 6H6M12 6C13.6569 6 15 7.34315 15 9V13.5C15 15.1569 13.6569 16.5 12 16.5H6C4.34315 16.5 3 15.1569 3 13.5V9C3 7.34315 4.34315 6 6 6M12 6V4.5C12 2.84315 10.6569 1.5 9 1.5C7.34315 1.5 6 2.84315 6 4.5V6M10.5 11.25C10.5 12.0784 9.82843 12.75 9 12.75C8.17157 12.75 7.5 12.0784 7.5 11.25C7.5 10.4216 8.17157 9.75 9 9.75C9.82843 9.75 10.5 10.4216 10.5 11.25Z" stroke="#A1A1A1" stroke-width="1.5" stroke-linecap="round" stroke-linejoin="round"/>
</g>
</svg>
