<svg width="20" height="21" viewBox="0 0 20 21" fill="none" xmlns="http://www.w3.org/2000/svg">
<path d="M10.4917 11.032L8.57508 12.9403C8.49697 13.0178 8.43498 13.11 8.39267 13.2115C8.35037 13.3131 8.32858 13.422 8.32858 13.532C8.32858 13.642 8.35037 13.7509 8.39267 13.8525C8.43498 13.954 8.49697 14.0462 8.57508 14.1237C8.65255 14.2018 8.74472 14.2638 8.84627 14.3061C8.94782 14.3484 9.05674 14.3701 9.16675 14.3701C9.27676 14.3701 9.38568 14.3484 9.48723 14.3061C9.58878 14.2638 9.68095 14.2018 9.75842 14.1237L13.0917 10.7903C13.1676 10.7111 13.2271 10.6176 13.2667 10.5153C13.3501 10.3124 13.3501 10.0849 13.2667 9.88198C13.2271 9.77969 13.1676 9.68624 13.0917 9.60698L9.75842 6.27365C9.68072 6.19595 9.58847 6.13432 9.48696 6.09227C9.38544 6.05022 9.27663 6.02857 9.16675 6.02857C9.05687 6.02857 8.94806 6.05022 8.84654 6.09227C8.74502 6.13432 8.65278 6.19595 8.57508 6.27365C8.49738 6.35135 8.43575 6.44359 8.3937 6.54511C8.35165 6.64663 8.33001 6.75543 8.33001 6.86532C8.33001 6.9752 8.35165 7.08401 8.3937 7.18553C8.43575 7.28704 8.49738 7.37929 8.57508 7.45698L10.4917 9.36532H2.50008C2.27907 9.36532 2.06711 9.45311 1.91083 9.6094C1.75455 9.76568 1.66675 9.97764 1.66675 10.1987C1.66675 10.4197 1.75455 10.6316 1.91083 10.7879C2.06711 10.9442 2.27907 11.032 2.50008 11.032H10.4917ZM10.0001 1.86532C8.44266 1.85836 6.91445 2.28799 5.5888 3.10548C4.26316 3.92296 3.19313 5.09558 2.50008 6.49032C2.40063 6.68923 2.38426 6.9195 2.45459 7.13048C2.52491 7.34146 2.67617 7.51586 2.87508 7.61532C3.07399 7.71477 3.30427 7.73114 3.51525 7.66081C3.72622 7.59049 3.90063 7.43923 4.00008 7.24032C4.52691 6.17642 5.32828 5.2725 6.32137 4.62197C7.31447 3.97145 8.46327 3.59792 9.64904 3.53998C10.8348 3.48204 12.0146 3.7418 13.0663 4.29241C14.1181 4.84302 15.0038 5.66451 15.6318 6.67198C16.2599 7.67945 16.6075 8.83636 16.6387 10.0231C16.67 11.2099 16.3838 12.3835 15.8097 13.4227C15.2356 14.4618 14.3944 15.3288 13.373 15.934C12.3517 16.5392 11.1873 16.8607 10.0001 16.8653C8.75748 16.8707 7.53854 16.5256 6.48316 15.8697C5.42777 15.2138 4.57871 14.2736 4.03341 13.157C3.93396 12.9581 3.75956 12.8068 3.54858 12.7365C3.3376 12.6662 3.10733 12.6825 2.90841 12.782C2.7095 12.8814 2.55825 13.0558 2.48792 13.2668C2.41759 13.4778 2.43396 13.7081 2.53341 13.907C3.1941 15.2366 4.19802 16.3655 5.44131 17.177C6.6846 17.9885 8.12212 18.4531 9.60518 18.5228C11.0882 18.5925 12.563 18.2646 13.8769 17.5732C15.1908 16.8818 16.2961 15.852 17.0785 14.5902C17.8609 13.3284 18.292 11.8804 18.3272 10.3962C18.3624 8.91187 18.0004 7.44514 17.2786 6.14768C16.5569 4.85021 15.5016 3.76912 14.222 3.01624C12.9423 2.26335 11.4848 1.86601 10.0001 1.86532Z" fill="#506683"/>
</svg>
