<svg width="32" height="32" viewBox="0 0 32 32" fill="none" xmlns="http://www.w3.org/2000/svg">
<g id="fluent:mail-20-filled">
<path id="Vector" d="M28.8 11.7967V23.1999C28.8 24.2608 28.3786 25.2782 27.6284 26.0283C26.8783 26.7785 25.8609 27.1999 24.8 27.1999H7.20001C6.13915 27.1999 5.12173 26.7785 4.37159 26.0283C3.62144 25.2782 3.20001 24.2608 3.20001 23.1999V11.7967L15.5936 19.0895C15.7167 19.1621 15.8571 19.2004 16 19.2004C16.143 19.2004 16.2833 19.1621 16.4064 19.0895L28.8 11.7967ZM24.8 6.3999C25.7842 6.39975 26.734 6.76247 27.4675 7.41869C28.2011 8.0749 28.667 8.97853 28.776 9.9567L16 17.4719L3.22401 9.9567C3.33307 8.97853 3.79893 8.0749 4.53248 7.41869C5.26604 6.76247 6.21578 6.39975 7.20001 6.3999H24.8Z" fill="white"/>
</g>
</svg>
