<svg width="157" height="158" viewBox="0 0 157 158" fill="none" xmlns="http://www.w3.org/2000/svg">
<g id="[component:lottie:https://assets1.lottiefiles.com/packages/lf20_t6eeo9z1.json]">
<path id="Vector (Stroke)" fill-rule="evenodd" clip-rule="evenodd" d="M117.616 49.7529C119.939 52.0668 119.947 55.8259 117.633 58.1492L67.6067 108.379C65.2929 110.702 61.534 110.709 59.2107 108.396L40.9664 90.2272C38.643 87.9135 38.6352 84.1543 40.949 81.8309C43.2627 79.5075 47.0218 79.4997 49.3452 81.8134L63.3829 95.7928L109.219 49.7699C111.533 47.4466 115.292 47.439 117.616 49.7529Z" fill="#00DE75"/>
<path id="Vector (Stroke)_2" fill-rule="evenodd" clip-rule="evenodd" d="M78.6541 12.8244C47.1831 12.8244 20.7812 34.7997 14.004 64.2384L14.0039 64.2385C12.9007 69.0303 12.3165 74.025 12.3165 79.1619C12.3165 115.771 42.0447 145.499 78.6541 145.499C115.263 145.499 144.992 115.771 144.992 79.1619C144.992 42.5525 115.263 12.8244 78.6541 12.8244ZM2.43248 61.5745C10.4223 26.8689 41.5255 0.950195 78.6541 0.950195C121.821 0.950195 156.866 35.9946 156.866 79.1619C156.866 122.329 121.821 157.374 78.6541 157.374C35.4868 157.374 0.442383 122.329 0.442383 79.1619C0.442383 73.1218 1.1296 67.2336 2.43248 61.5745Z" fill="#09BB10"/>
</g>
</svg>
