<svg width="20" height="21" viewBox="0 0 20 21" fill="none" xmlns="http://www.w3.org/2000/svg">
<path d="M17.0749 6.46675C17.0702 6.44478 17.0702 6.42205 17.0749 6.40008C17.0709 6.38085 17.0709 6.36098 17.0749 6.34175V6.26675L17.0249 6.14175C17.0046 6.10764 16.9793 6.07674 16.9499 6.05008L16.8749 5.98341H16.8333L13.5499 3.90841L10.4499 1.99175C10.3782 1.93485 10.2961 1.8924 10.2083 1.86675H10.1416C10.0671 1.85431 9.99109 1.85431 9.9166 1.86675H9.83327C9.73647 1.88816 9.64366 1.92472 9.55827 1.97508L3.33327 5.85008L3.25827 5.90841L3.18327 5.97508L3.09993 6.03341L3.05827 6.08341L3.00827 6.20841V6.28341V6.33341C3.00017 6.38867 3.00017 6.44482 3.00827 6.50008V13.7751C3.00798 13.9167 3.0438 14.0561 3.11233 14.18C3.18086 14.3039 3.27984 14.4084 3.39993 14.4834L9.64993 18.3501L9.77493 18.4001H9.8416C9.98259 18.4448 10.134 18.4448 10.2749 18.4001H10.3416L10.4666 18.3501L16.6666 14.5417C16.7867 14.4667 16.8857 14.3623 16.9542 14.2383C17.0227 14.1144 17.0586 13.975 17.0583 13.8334V6.55841C17.0583 6.55841 17.0749 6.50008 17.0749 6.46675ZM9.99993 3.67508L11.4833 4.59175L6.82493 7.47508L5.33327 6.55841L9.99993 3.67508ZM9.1666 16.1751L4.58327 13.3751V8.05008L9.1666 10.8834V16.1751ZM9.99993 9.41675L8.40827 8.45841L13.0666 5.56675L14.6666 6.55841L9.99993 9.41675ZM15.4166 13.3501L10.8333 16.2001V10.8834L15.4166 8.05008V13.3501Z" fill="#506683"/>
</svg>
