<svg width="32" height="32" viewBox="0 0 32 32" fill="none" xmlns="http://www.w3.org/2000/svg">
<g clip-path="url(#clip0_418_4710)">
<path d="M32 3.89579C30.8017 4.54602 29.5307 4.97282 28.2292 5.16201C29.5849 4.1668 30.6257 2.59084 31.1159 0.713096C29.8272 1.6498 28.4173 2.30977 26.947 2.66448C25.7494 1.10169 24.0432 0.125 22.1549 0.125C18.5291 0.125 15.5895 3.72554 15.5895 8.16634C15.5895 8.79669 15.6476 9.41036 15.7595 9.99907C10.3032 9.6636 5.46575 6.46222 2.22762 1.597C1.66262 2.78467 1.33888 4.16619 1.33888 5.63972C1.33888 8.42969 2.498 10.8909 4.2595 12.3331C3.21694 12.2931 2.19731 11.9482 1.28575 11.3271C1.28537 11.3608 1.28537 11.3945 1.28537 11.4284C1.28537 15.3245 3.54837 18.5748 6.55162 19.3135C5.58486 19.6356 4.57079 19.6827 3.58687 19.4513C4.42225 22.6461 6.84688 24.9709 9.71963 25.036C7.47275 27.1927 4.64188 28.4784 1.56613 28.4784C1.03613 28.4784 0.513625 28.4403 0 28.366C2.90538 30.6476 6.35625 31.9789 10.0638 31.9789C22.1396 31.9789 28.743 19.7254 28.743 9.09893C28.743 8.75015 28.7368 8.40335 28.724 8.05855C30.0093 6.92046 31.1186 5.51082 32 3.89579Z" fill="#55ACEE"/>
</g>
<defs>
<clipPath id="clip0_418_4710">
<rect width="32" height="32" fill="white"/>
</clipPath>
</defs>
</svg>
