<svg width="19" height="18" viewBox="0 0 19 18" fill="none" xmlns="http://www.w3.org/2000/svg">
<g id="Huge-icon">
<path id="Vector" d="M11.75 5.25C11.75 6.49264 10.7426 7.5 9.5 7.5V9C11.5711 9 13.25 7.32107 13.25 5.25H11.75ZM9.5 7.5C8.25736 7.5 7.25 6.49264 7.25 5.25H5.75C5.75 7.32107 7.42893 9 9.5 9V7.5ZM7.25 5.25C7.25 4.00736 8.25736 3 9.5 3V1.5C7.42893 1.5 5.75 3.17893 5.75 5.25H7.25ZM9.5 3C10.7426 3 11.75 4.00736 11.75 5.25H13.25C13.25 3.17893 11.5711 1.5 9.5 1.5V3ZM14 13.125C14 13.4128 13.7472 13.8752 12.8769 14.3103C12.0514 14.7231 10.8586 15 9.5 15V16.5C11.0409 16.5 12.4731 16.1893 13.5477 15.652C14.5775 15.1371 15.5 14.287 15.5 13.125H14ZM9.5 15C8.14144 15 6.94857 14.7231 6.1231 14.3103C5.25276 13.8752 5 13.4128 5 13.125H3.5C3.5 14.287 4.42249 15.1371 5.45228 15.652C6.52693 16.1893 7.95907 16.5 9.5 16.5V15ZM5 13.125C5 12.8372 5.25276 12.3748 6.1231 11.9397C6.94857 11.5269 8.14144 11.25 9.5 11.25V9.75C7.95907 9.75 6.52693 10.0607 5.45228 10.598C4.42249 11.1129 3.5 11.963 3.5 13.125H5ZM9.5 11.25C10.8586 11.25 12.0514 11.5269 12.8769 11.9397C13.7472 12.3748 14 12.8372 14 13.125H15.5C15.5 11.963 14.5775 11.1129 13.5477 10.598C12.4731 10.0607 11.0409 9.75 9.5 9.75V11.25Z" fill="#A1A1A1"/>
</g>
</svg>
